<svg id="visual" viewBox="0 0 1440 1080" width="1440" height="1080" xmlns="http://www.w3.org/2000/svg" xmlns:xlink="http://www.w3.org/1999/xlink" version="1.1"><rect x="0" y="0" width="1440" height="1080" fill="#f9fffd"></rect><path d="M699 0L560 0L560 120L757 120L757 240L735 240L735 360L641 360L641 480L664 480L664 600L734 600L734 720L781 720L781 840L634 840L634 960L782 960L782 1080L0 1080L0 960L0 960L0 840L0 840L0 720L0 720L0 600L0 600L0 480L0 480L0 360L0 360L0 240L0 240L0 120L0 120L0 0L0 0Z" fill="#009473"></path><path d="M538 0L368 0L368 120L498 120L498 240L582 240L582 360L443 360L443 480L470 480L470 600L466 600L466 720L534 720L534 840L444 840L444 960L399 960L399 1080L0 1080L0 960L0 960L0 840L0 840L0 720L0 720L0 600L0 600L0 480L0 480L0 360L0 360L0 240L0 240L0 120L0 120L0 0L0 0Z" fill="#14aa88"></path><path d="M344 0L218 0L218 120L338 120L338 240L294 240L294 360L192 360L192 480L334 480L334 600L253 600L253 720L265 720L265 840L319 840L319 960L278 960L278 1080L0 1080L0 960L0 960L0 840L0 840L0 720L0 720L0 600L0 600L0 480L0 480L0 360L0 360L0 240L0 240L0 120L0 120L0 0L0 0Z" fill="#22c19e"></path></svg>