<svg xmlns="http://www.w3.org/2000/svg" xmlns:xlink="http://www.w3.org/1999/xlink" width="500" zoomAndPan="magnify" viewBox="0 0 375 374.999991" height="500" preserveAspectRatio="xMidYMid meet" version="1.0"><defs><clipPath id="abf75ba4e4"><path d="M 26.605469 26.605469 L 348.394531 26.605469 L 348.394531 348.394531 L 26.605469 348.394531 Z M 26.605469 26.605469 " clip-rule="nonzero"/></clipPath><clipPath id="a9f0ae79df"><path d="M 187.5 26.605469 C 98.640625 26.605469 26.605469 98.640625 26.605469 187.5 C 26.605469 276.359375 98.640625 348.394531 187.5 348.394531 C 276.359375 348.394531 348.394531 276.359375 348.394531 187.5 C 348.394531 98.640625 276.359375 26.605469 187.5 26.605469 Z M 187.5 26.605469 " clip-rule="nonzero"/></clipPath><clipPath id="197ff8e020"><path d="M 46.648438 175.960938 L 328.371094 175.960938 L 328.371094 247.726562 L 46.648438 247.726562 Z M 46.648438 175.960938 " clip-rule="nonzero"/></clipPath><clipPath id="5399265a9f"><path d="M 187.5 175.960938 C 109.710938 175.960938 46.648438 192.027344 46.648438 211.84375 C 46.648438 231.660156 109.710938 247.726562 187.5 247.726562 C 265.289062 247.726562 328.351562 231.660156 328.351562 211.84375 C 328.351562 192.027344 265.289062 175.960938 187.5 175.960938 Z M 187.5 175.960938 " clip-rule="nonzero"/></clipPath><clipPath id="148fba596d"><path d="M 85.394531 90.394531 L 289.394531 90.394531 L 289.394531 261 L 85.394531 261 Z M 85.394531 90.394531 " clip-rule="nonzero"/></clipPath></defs><g clip-path="url(#abf75ba4e4)"><g clip-path="url(#a9f0ae79df)"><path fill="#ffffff" d="M 26.605469 26.605469 L 348.394531 26.605469 L 348.394531 348.394531 L 26.605469 348.394531 Z M 26.605469 26.605469 " fill-opacity="1" fill-rule="nonzero"/></g></g><g clip-path="url(#197ff8e020)"><g clip-path="url(#5399265a9f)"><path fill="#009473" d="M 46.648438 175.960938 L 328.371094 175.960938 L 328.371094 247.726562 L 46.648438 247.726562 Z M 46.648438 175.960938 " fill-opacity="1" fill-rule="nonzero"/></g></g><g clip-path="url(#148fba596d)"><path fill="#02795e" d="M 287.707031 199.328125 C 284.410156 200.984375 282.597656 204.066406 280.289062 206.65625 C 279.058594 208.035156 278.84375 209.933594 278.601562 211.738281 C 278.097656 215.472656 278.554688 219.035156 280.414062 222.375 C 280.761719 222.996094 281.171875 223.375 281.832031 223.5625 C 282.863281 223.851562 283.851562 224.257812 284.710938 224.910156 C 286.039062 225.917969 286.179688 227.109375 285.105469 228.371094 C 283.921875 229.757812 282.359375 230.570312 280.660156 231.109375 C 277.214844 232.195312 273.785156 233.328125 270.332031 234.390625 C 262.714844 236.730469 255.171875 239.296875 247.527344 241.550781 C 236.5625 244.789062 226.25 249.710938 215.71875 254.042969 C 211.664062 255.710938 207.734375 257.738281 203.75 259.597656 C 199.652344 261.507812 195.824219 261.425781 191.867188 259.585938 C 189.597656 258.527344 187.285156 257.554688 185.167969 256.195312 C 180.496094 253.203125 175.152344 251.578125 170.316406 248.925781 C 162.476562 244.625 154.332031 240.871094 146.859375 235.902344 C 146.015625 235.339844 145.128906 234.796875 144.191406 234.417969 C 138.621094 232.164062 133.578125 228.933594 128.328125 226.074219 C 124.578125 224.027344 120.875 221.972656 117.585938 219.203125 C 116.53125 218.3125 115.640625 217.355469 115.011719 216.15625 C 114.746094 215.644531 114.507812 215.421875 113.855469 215.507812 C 107.546875 216.355469 101.492188 215.3125 95.65625 212.886719 C 94.375 212.355469 93.167969 211.644531 91.925781 211.023438 C 89.03125 209.578125 87.214844 207.191406 86.050781 204.246094 C 85.453125 202.726562 85.851562 201.246094 86.199219 199.746094 C 87.78125 192.917969 90.9375 186.707031 93.578125 180.277344 C 98.210938 169 103.5625 158.023438 107.59375 146.5 C 111.027344 136.683594 115.183594 127.171875 119.550781 117.742188 C 121.648438 113.203125 123.832031 108.703125 126.113281 104.257812 C 127.378906 101.789062 129.195312 100.226562 132.195312 99.902344 C 138.457031 99.222656 144.6875 98.265625 150.921875 97.363281 C 158.078125 96.328125 165.246094 95.457031 172.429688 94.664062 C 178.230469 94.023438 183.945312 92.796875 189.6875 91.761719 C 193.429688 91.085938 197.203125 90.648438 201 90.476562 C 202.257812 90.421875 203.625 90.382812 204.0625 91.976562 C 204.507812 93.59375 203.992188 94.550781 202.324219 95.492188 C 200.234375 96.675781 200.183594 96.984375 201.839844 98.769531 C 202.121094 99.070312 202.441406 99.363281 202.796875 99.566406 C 207.214844 102.101562 211.855469 104.035156 216.960938 104.628906 C 217.800781 104.726562 218.695312 104.445312 219.558594 104.28125 C 221.035156 104.003906 222.519531 104.027344 223.992188 104.1875 C 225.519531 104.351562 226.035156 105.027344 226.074219 106.597656 C 226.117188 108.320312 225.628906 109.863281 224.710938 111.324219 C 221.804688 115.960938 219.089844 120.699219 216.761719 125.664062 C 213.910156 131.753906 210.453125 137.527344 207.09375 143.347656 C 205.753906 145.664062 204.511719 148.035156 203.042969 150.714844 C 204.773438 150.25 206.15625 149.9375 207.5 149.507812 C 208.472656 149.195312 209.394531 149.171875 210.355469 149.480469 C 221.039062 152.902344 232.070312 155.117188 242.6875 158.753906 C 249.222656 160.992188 255.773438 163.167969 262.421875 165.046875 C 264.269531 165.570312 264.640625 166.050781 264.183594 167.949219 C 263.523438 170.667969 263.230469 173.425781 262.984375 176.195312 C 262.789062 178.40625 262.679688 180.632812 262.441406 182.839844 C 262.347656 183.707031 262.996094 183.59375 263.390625 183.71875 C 269.078125 185.550781 274.785156 187.335938 280.195312 189.925781 C 282.207031 190.886719 284.199219 191.875 286.101562 193.035156 C 286.9375 193.546875 287.699219 194.15625 288.328125 194.910156 C 289.539062 196.351562 289.363281 198.496094 287.707031 199.328125 Z M 287.707031 199.328125 " fill-opacity="1" fill-rule="nonzero"/></g><path fill="#00bf63" d="M 189.15625 110.941406 C 182.894531 112.421875 176.660156 114.167969 170.246094 114.828125 C 165.378906 115.328125 160.664062 116.476562 155.910156 117.484375 C 155.332031 117.609375 154.878906 117.753906 154.679688 118.410156 C 154.179688 120.066406 153.277344 121.53125 152.402344 123.007812 C 149.1875 128.433594 145.902344 133.835938 143.671875 139.761719 C 137.746094 155.476562 131.023438 170.839844 123.539062 185.871094 C 122.582031 187.796875 121.808594 189.820312 121.179688 191.925781 C 121.402344 191.945312 121.503906 191.984375 121.570312 191.953125 C 126.035156 189.855469 130.644531 188.195312 135.539062 187.449219 C 136.355469 187.324219 136.429688 186.886719 136.503906 186.230469 C 136.988281 181.90625 137.601562 177.59375 137.96875 173.257812 C 138.132812 171.304688 139.050781 170.207031 140.746094 169.527344 C 144.914062 167.851562 149.113281 166.195312 153.476562 165.136719 C 159.691406 163.621094 165.917969 162.191406 171.933594 159.960938 C 174.710938 158.933594 177.570312 158.109375 180.527344 157.703125 C 183.203125 157.332031 185.757812 156.519531 188.332031 155.726562 C 192.367188 154.488281 196.042969 152.269531 200.226562 151.453125 C 200.859375 151.332031 201.039062 150.726562 201.304688 150.257812 C 202.855469 147.515625 204.351562 144.742188 205.921875 142.007812 C 209.148438 136.382812 212.589844 130.867188 215.207031 124.917969 C 217.457031 119.808594 220.289062 115.03125 223.21875 110.308594 C 223.890625 109.226562 224.441406 108.128906 224.421875 106.8125 C 224.414062 106.210938 224.21875 105.917969 223.574219 105.785156 C 222.214844 105.503906 220.882812 105.671875 219.582031 105.980469 C 213.761719 107.367188 207.882812 108.378906 201.9375 109.085938 C 197.667969 109.59375 193.378906 109.941406 189.15625 110.941406 Z M 185.054688 148.28125 C 182.96875 151.558594 180.152344 153.648438 176.773438 153.734375 C 174.265625 153.746094 172.535156 153.289062 170.96875 152.316406 C 169.359375 151.320312 168.472656 149.832031 168.457031 147.941406 C 168.453125 147.027344 168.125 146.496094 167.363281 146.058594 C 166.636719 145.640625 165.917969 145.070312 166.054688 144.109375 C 166.199219 143.121094 167.109375 142.816406 167.917969 142.703125 C 169.277344 142.515625 170.292969 142.074219 171.238281 140.925781 C 172.589844 139.28125 175.628906 139.457031 177.144531 140.976562 C 178.066406 141.902344 178.164062 142.984375 177.746094 144.183594 C 177.617188 144.542969 177.167969 144.933594 177.53125 145.320312 C 177.894531 145.703125 178.40625 145.488281 178.847656 145.371094 C 180.226562 145.011719 181.535156 144.363281 183.027344 144.492188 C 184.082031 144.582031 185.351562 144.402344 185.929688 145.410156 C 186.535156 146.46875 185.613281 147.402344 185.054688 148.28125 Z M 117.15625 195.214844 C 118.933594 193.707031 119.402344 191.558594 120.15625 189.53125 C 120.769531 187.882812 121.371094 186.222656 122.109375 184.628906 C 127.4375 173.105469 133.300781 161.824219 137.804688 149.921875 C 139.703125 144.898438 141.5625 139.847656 143.800781 134.953125 C 146.222656 129.664062 149.398438 124.808594 152.386719 119.847656 C 152.683594 119.347656 153.339844 118.804688 153.042969 118.265625 C 152.78125 117.789062 152.019531 118.246094 151.507812 118.125 C 151.207031 118.125 150.925781 118.148438 150.652344 118.117188 C 149.867188 118.027344 149.089844 117.914062 148.308594 117.808594 C 142.335938 117.007812 137.378906 114.1875 133.023438 110.152344 C 131.828125 109.042969 131.707031 107.785156 132.257812 106.351562 C 132.804688 104.910156 134.042969 104.46875 135.375 104.085938 C 141.308594 102.378906 147.464844 102.304688 153.539062 101.691406 C 161.011719 100.933594 168.472656 100.238281 175.828125 98.609375 C 180.898438 97.484375 186.128906 97.359375 191.261719 96.621094 C 194.703125 96.128906 198.175781 95.746094 201.316406 94.09375 C 201.847656 93.816406 202.679688 93.648438 202.460938 92.765625 C 202.226562 91.820312 201.414062 91.832031 200.652344 91.910156 C 198.578125 92.121094 196.503906 92.332031 194.4375 92.59375 C 190.019531 93.15625 185.679688 94.128906 181.3125 94.953125 C 174.703125 96.199219 168.003906 96.746094 161.335938 97.570312 C 151.546875 98.785156 141.789062 100.265625 132.011719 101.558594 C 130.636719 101.738281 129.683594 102.273438 128.941406 103.394531 C 126.527344 107.039062 124.617188 110.925781 122.785156 114.894531 C 117.550781 126.230469 112.816406 137.757812 108.730469 149.550781 C 105.808594 157.976562 101.566406 165.84375 98.460938 174.195312 C 97.316406 177.273438 96.007812 180.3125 94.546875 183.257812 C 91.769531 188.839844 89.453125 194.585938 87.898438 200.628906 C 87.628906 201.675781 87.445312 202.738281 87.886719 203.769531 C 88.890625 206.132812 90.359375 208.113281 92.714844 209.316406 C 95.109375 210.539062 97.496094 211.769531 100.101562 212.515625 C 104.140625 213.667969 108.207031 214.40625 112.429688 213.789062 C 113.574219 213.621094 114.246094 213.363281 113.617188 212.023438 C 113.242188 211.21875 113.242188 210.304688 113.289062 209.421875 C 113.523438 205.074219 114.636719 200.921875 116.171875 196.878906 C 116.402344 196.28125 116.691406 195.613281 117.15625 195.214844 Z M 124.359375 116.238281 C 124.605469 115.554688 125.160156 115.546875 125.683594 116.046875 C 125.949219 116.304688 126.242188 116.542969 126.472656 116.832031 C 130.527344 121.894531 136.28125 123.902344 142.226562 125.523438 C 143.863281 125.96875 144.070312 126.152344 143.714844 127.769531 C 143.238281 129.953125 141.796875 131.65625 140.875 133.617188 C 140.597656 134.214844 139.992188 134.058594 139.511719 133.949219 C 133.144531 132.464844 127.503906 129.652344 122.953125 124.863281 C 122.140625 124.003906 122.148438 123.921875 122.210938 122.460938 C 122.058594 120.089844 123.609375 118.300781 124.359375 116.238281 Z M 113.308594 201.289062 C 112.675781 203.769531 111.277344 205.9375 110.269531 208.265625 C 109.882812 209.164062 108.679688 209.027344 107.738281 209.117188 C 105.316406 208.773438 102.910156 208.230469 100.71875 207.101562 C 98.296875 205.855469 95.859375 204.589844 93.890625 202.628906 C 92.113281 200.855469 91.25 198.878906 92.390625 196.375 C 92.828125 195.410156 93.078125 194.363281 93.445312 193.363281 C 93.933594 192.03125 94.515625 191.824219 95.585938 192.78125 C 99.125 195.933594 103.421875 197.609375 107.789062 199.164062 C 109.105469 199.632812 110.453125 199.863281 111.871094 199.722656 C 113.074219 199.605469 113.597656 200.15625 113.308594 201.289062 Z M 113.308594 201.289062 " fill-opacity="1" fill-rule="nonzero"/><path fill="#009473" d="M 188.484375 157.8125 C 194.710938 155.289062 201.125 153.300781 207.535156 151.3125 C 208.328125 151.066406 209.082031 150.773438 209.960938 151.074219 C 218.695312 154.0625 227.710938 156.070312 236.539062 158.726562 C 242.878906 160.632812 249.117188 162.875 255.414062 164.933594 C 257.214844 165.523438 259.050781 166 260.867188 166.527344 C 257.621094 167.851562 254.445312 168.992188 251.355469 170.355469 C 250.78125 170.609375 250.386719 170.46875 250.070312 169.953125 C 249.953125 169.753906 249.800781 169.578125 249.660156 169.394531 C 247.535156 166.628906 245.0625 165.964844 241.527344 167.425781 C 240.65625 167.789062 240.242188 167.855469 240.347656 166.738281 C 240.542969 164.757812 237.691406 163.457031 235.546875 163.5625 C 234.246094 163.625 232.9375 164.398438 231.769531 164.253906 C 230.679688 164.121094 230.382812 162.382812 229.335938 161.648438 C 228.085938 160.773438 226.8125 160.515625 225.410156 161.058594 C 224.59375 161.375 223.800781 161.769531 223.03125 162.195312 C 222.507812 162.484375 222.234375 162.542969 221.824219 161.941406 C 219.367188 158.355469 217.433594 157.804688 213.4375 159.554688 C 212.636719 159.902344 212.253906 160.050781 211.925781 158.984375 C 211.296875 156.957031 209.683594 155.902344 207.65625 155.738281 C 205.714844 155.578125 204.253906 156.605469 203.441406 158.347656 C 203.039062 159.214844 202.695312 159.375 201.824219 158.957031 C 200.792969 158.460938 199.632812 158.597656 198.546875 158.824219 C 196.757812 159.195312 196.128906 159.96875 195.851562 161.996094 C 192.84375 160.59375 189.792969 159.414062 186.4375 158.707031 C 187.136719 158.082031 187.859375 158.066406 188.484375 157.8125 Z M 188.484375 157.8125 " fill-opacity="1" fill-rule="nonzero"/><path fill="#ffffff" d="M 126.765625 202.3125 C 126.503906 202.964844 127.035156 203.332031 127.570312 203.566406 C 130.078125 204.65625 132.585938 205.746094 135.101562 206.808594 C 136.644531 207.460938 138.128906 208.214844 139.539062 209.113281 C 142.402344 210.941406 145.382812 212.609375 148.554688 213.753906 C 154.242188 215.804688 159.164062 219.207031 164.402344 222.070312 C 170.902344 225.625 177.253906 229.46875 184.035156 232.484375 C 187.285156 233.929688 190.765625 234.859375 193.703125 237.007812 C 194.433594 237.542969 194.714844 237.972656 194.335938 238.792969 C 194.203125 239.085938 194.152344 239.414062 194.070312 239.730469 C 193.429688 242.222656 193.410156 242.226562 191.113281 241.179688 C 188.234375 239.871094 185.476562 238.371094 182.910156 236.511719 C 179.660156 234.160156 175.984375 232.574219 172.382812 230.871094 C 170.746094 230.097656 169.113281 229.3125 167.609375 228.304688 C 163 225.214844 157.816406 223.246094 152.90625 220.738281 C 151.671875 220.105469 150.4375 219.460938 149.246094 218.742188 C 141.824219 214.257812 134.125 210.269531 126.53125 206.097656 C 125.921875 205.765625 125.296875 205.445312 124.570312 205.445312 C 124.230469 205.445312 123.90625 205.5 123.761719 205.855469 C 123.613281 206.210938 123.8125 206.484375 124.054688 206.710938 C 124.1875 206.839844 124.34375 206.949219 124.507812 207.027344 C 130.691406 210.015625 136.472656 213.738281 142.589844 216.847656 C 146.679688 218.921875 150.378906 221.71875 154.640625 223.480469 C 162.453125 226.714844 169.359375 231.722656 177.167969 234.972656 C 179.175781 235.804688 181 237.035156 182.816406 238.25 C 185.828125 240.269531 188.980469 242.027344 192.480469 243.066406 C 192.996094 243.21875 193.117188 243.457031 193.070312 243.957031 C 192.976562 244.972656 192.902344 245.992188 192.898438 247.007812 C 192.898438 247.84375 192.617188 247.996094 191.90625 247.609375 C 191.171875 247.214844 190.398438 246.886719 189.667969 246.488281 C 182.03125 242.328125 174.132812 238.660156 166.789062 233.929688 C 162.71875 231.304688 158.046875 229.675781 153.839844 227.210938 C 148.121094 223.863281 142.132812 220.984375 136.59375 217.320312 C 133.25 215.113281 129.523438 213.648438 125.933594 211.921875 C 125.726562 211.824219 125.503906 211.746094 125.277344 211.691406 C 124.824219 211.589844 124.304688 211.457031 124.054688 211.996094 C 123.757812 212.628906 124.25 212.941406 124.710938 213.171875 C 126.242188 213.941406 127.765625 214.738281 129.335938 215.421875 C 132.152344 216.648438 134.703125 218.335938 137.347656 219.871094 C 145.765625 224.75 154.191406 229.621094 162.996094 233.804688 C 167.191406 235.796875 171.03125 238.421875 174.96875 240.859375 C 176.238281 241.644531 177.511719 242.402344 178.9375 242.847656 C 182.375 243.933594 185.289062 246.082031 188.527344 247.570312 C 189.453125 247.996094 190.339844 248.535156 191.304688 248.847656 C 192.664062 249.285156 193.207031 250.148438 193.082031 251.613281 C 187.34375 249.867188 182.183594 247.023438 176.953125 244.339844 C 174.4375 243.046875 171.9375 241.738281 169.269531 240.765625 C 166.464844 239.746094 163.878906 238.261719 161.367188 236.6875 C 155.976562 233.300781 150.046875 230.941406 144.574219 227.710938 C 140.902344 225.542969 137.125 223.570312 133.222656 221.820312 C 130.375 220.542969 128.121094 218.304688 125.710938 216.34375 C 125.132812 215.878906 124.625 215.296875 123.992188 214.933594 C 120.496094 212.921875 120.429688 209.675781 120.9375 206.3125 C 121.15625 204.863281 121.726562 203.449219 122.277344 202.078125 C 123.503906 199.023438 125.742188 197.894531 128.949219 198.6875 C 131.210938 199.246094 133.265625 200.363281 135.398438 201.265625 C 149.164062 207.082031 162.441406 213.855469 175.371094 221.363281 C 180.890625 224.570312 186.828125 227.050781 192.582031 229.847656 C 193.914062 230.492188 195.261719 231.117188 196.632812 231.679688 C 197.402344 231.996094 197.375 232.308594 196.878906 232.863281 C 196.257812 233.558594 195.78125 234.371094 195.488281 235.253906 C 195.179688 236.199219 194.761719 236.09375 194.089844 235.613281 C 191.925781 234.0625 189.480469 233.097656 187.039062 232.0625 C 182.824219 230.273438 178.648438 228.351562 174.785156 225.835938 C 171.050781 223.40625 166.765625 221.953125 163.128906 219.363281 C 158.480469 216.050781 153.296875 213.816406 148.070312 211.644531 C 145.367188 210.523438 142.835938 209.054688 140.347656 207.515625 C 136.542969 205.164062 132.304688 203.742188 128.203125 202.023438 C 127.679688 201.800781 127.039062 201.625 126.765625 202.3125 Z M 142.859375 180.328125 C 144.261719 180.652344 145.640625 181.050781 146.972656 181.597656 C 155.929688 185.277344 164.566406 189.679688 173.582031 193.242188 C 178.359375 195.128906 182.878906 197.644531 187.570312 199.757812 C 190.109375 200.898438 190.160156 200.785156 190.550781 198.140625 C 190.585938 197.910156 190.632812 197.683594 190.648438 197.453125 C 190.675781 197.035156 190.519531 196.875 190.0625 196.714844 C 187.792969 195.917969 185.5 195.152344 183.324219 194.140625 C 173.539062 189.582031 164.09375 184.316406 154.066406 180.246094 C 149.695312 178.476562 145.5625 176.117188 141.351562 173.96875 C 140.292969 173.429688 139.796875 173.425781 139.753906 174.789062 C 139.71875 175.898438 139.5 176.996094 139.378906 178.101562 C 139.003906 181.550781 138.351562 184.96875 138.410156 188.464844 C 138.429688 189.667969 138.875 190.367188 139.882812 190.871094 C 144.320312 193.085938 148.601562 195.601562 153.246094 197.398438 C 163.105469 201.214844 172.914062 205.148438 182.445312 209.746094 C 185.09375 211.023438 187.773438 212.253906 190.53125 213.640625 C 190.300781 212.375 190.089844 211.296875 189.921875 210.210938 C 189.859375 209.789062 189.628906 209.558594 189.289062 209.363281 C 187.882812 208.5625 186.515625 207.695312 185.09375 206.90625 C 179.847656 203.996094 174.109375 202.191406 168.757812 199.527344 C 161.664062 195.996094 154.5625 192.476562 147.125 189.703125 C 145.390625 189.054688 143.648438 188.414062 141.917969 187.753906 C 141.308594 187.519531 140.789062 187.140625 141.144531 186.398438 C 141.476562 185.707031 142.03125 185.996094 142.578125 186.191406 C 151.167969 189.3125 159.570312 192.875 167.652344 197.148438 C 173.113281 200.035156 179.109375 201.695312 184.535156 204.667969 C 186.265625 205.613281 188.03125 206.507812 189.78125 207.691406 C 190.117188 206.164062 190.050781 204.820312 190.164062 203.492188 C 190.234375 202.660156 189.984375 202.210938 189.097656 202.058594 C 187.113281 201.71875 185.320312 200.828125 183.535156 199.933594 C 181.5 198.917969 179.433594 197.96875 177.433594 196.894531 C 172.644531 194.316406 167.414062 192.761719 162.515625 190.425781 C 158.460938 188.488281 154.410156 186.535156 150.257812 184.804688 C 147.652344 183.71875 145.136719 182.410156 142.402344 181.632812 C 141.886719 181.488281 141.125 181.289062 141.316406 180.617188 C 141.546875 179.820312 142.292969 180.195312 142.859375 180.328125 Z M 200.234375 100.300781 C 198.191406 100.941406 196.046875 101.042969 193.96875 101.511719 C 188.367188 102.78125 182.746094 103.992188 177.066406 104.8125 C 172.945312 105.402344 168.753906 105.503906 164.609375 105.953125 C 157.003906 106.773438 149.535156 108.480469 141.972656 109.582031 C 141.140625 109.703125 139.832031 110.363281 139.628906 109.0625 C 139.4375 107.824219 140.878906 107.941406 141.710938 107.792969 C 145.496094 107.117188 149.300781 106.5625 153.085938 105.886719 C 157.558594 105.089844 162.019531 104.316406 166.566406 104.011719 C 170.863281 103.722656 175.179688 103.550781 179.425781 102.726562 C 185.835938 101.488281 192.203125 100.039062 198.671875 99.109375 C 199.066406 99.054688 199.84375 99.132812 199.546875 98.441406 C 199.324219 97.925781 199.5 96.792969 198.226562 97.144531 C 195.542969 97.886719 192.777344 98.222656 190.023438 98.589844 C 185.519531 99.1875 180.929688 99.355469 176.523438 100.355469 C 166.027344 102.730469 155.335938 103.351562 144.695312 104.410156 C 141.539062 104.726562 138.464844 105.328125 135.417969 106.128906 C 133.726562 106.574219 133.433594 107.832031 134.675781 108.992188 C 137.800781 111.917969 141.359375 114.164062 145.488281 115.347656 C 148.859375 116.316406 152.261719 116.65625 155.753906 115.628906 C 158.324219 114.871094 160.984375 114.410156 163.617188 113.871094 C 167.519531 113.066406 171.542969 113.03125 175.425781 112.070312 C 185.917969 109.480469 196.503906 107.449219 207.296875 106.582031 C 209.023438 106.445312 210.808594 106.300781 212.679688 105.515625 C 211.453125 105.144531 210.4375 104.945312 209.523438 104.53125 C 208.246094 103.949219 207.011719 103.878906 205.617188 104.082031 C 202.722656 104.496094 199.9375 105.386719 197.058594 105.859375 C 190.566406 106.929688 184.007812 107.554688 177.5625 108.882812 C 174.976562 109.410156 172.449219 110.214844 169.820312 110.542969 C 162.375 111.472656 154.890625 112.125 147.507812 113.539062 C 146.84375 113.667969 145.972656 113.890625 145.761719 112.949219 C 145.546875 111.980469 146.457031 111.894531 147.105469 111.71875 C 150.835938 110.699219 154.699219 110.546875 158.5 109.988281 C 163.902344 109.195312 169.402344 109.058594 174.71875 107.667969 C 178.179688 106.761719 181.710938 106.246094 185.246094 105.8125 C 191.730469 105.015625 198.191406 104.109375 204.765625 102.613281 C 203.441406 101.816406 202.292969 101.136719 201.160156 100.429688 C 200.855469 100.242188 200.5625 100.195312 200.234375 100.300781 Z M 210.746094 161.054688 C 210.800781 158.941406 209.65625 157.421875 207.871094 157.144531 C 206.351562 156.914062 204.992188 157.992188 204.394531 159.917969 C 204.308594 160.183594 204.253906 160.457031 204.167969 160.71875 C 203.804688 161.839844 203.226562 162.050781 202.554688 161.160156 C 201.714844 160.042969 200.644531 159.996094 199.457031 160.089844 C 198.648438 160.152344 197.738281 160.292969 197.5 161.128906 C 197.238281 162.046875 198.050781 162.617188 198.695312 163.152344 C 198.832031 163.269531 199.015625 163.332031 199.1875 163.40625 C 204.570312 165.777344 209.929688 168.214844 215.523438 170.070312 C 221.195312 171.953125 226.757812 174.136719 232.28125 176.40625 C 233.652344 176.96875 234.640625 176.941406 235.851562 176.246094 C 238.070312 174.972656 240.464844 174.085938 242.890625 173.292969 C 244.566406 172.75 246.226562 172.15625 247.910156 171.652344 C 248.835938 171.375 248.839844 171.039062 248.285156 170.324219 C 246.355469 167.84375 244 167.621094 240.960938 169.695312 C 240.394531 170.082031 239.84375 170.710938 239.101562 170.300781 C 238.304688 169.855469 238.703125 169.085938 238.792969 168.414062 C 239.074219 166.332031 238.070312 165.09375 235.941406 165.15625 C 234.28125 165.207031 232.605469 165.464844 231.347656 166.773438 C 231.039062 167.09375 230.703125 167.339844 230.25 167.101562 C 229.796875 166.867188 229.84375 166.457031 229.878906 166.015625 C 230.105469 163.214844 227.789062 161.578125 225.28125 162.769531 C 224.652344 163.066406 224.050781 163.421875 223.476562 163.8125 C 221.636719 165.058594 221.644531 165.070312 220.761719 163.105469 C 219.859375 161.09375 218.453125 160 216.804688 160.152344 C 215.25 160.292969 213.84375 160.875 212.597656 161.820312 C 212.148438 162.160156 211.890625 162.957031 211.136719 162.597656 C 210.425781 162.253906 210.816406 161.53125 210.746094 161.054688 Z M 196.011719 240.128906 C 195.976562 240.355469 195.863281 240.570312 195.835938 240.800781 C 195.785156 241.238281 195.28125 241.703125 195.660156 242.082031 C 196.035156 242.464844 196.539062 242.042969 196.964844 241.933594 C 202.3125 240.546875 207.554688 238.828125 212.488281 236.308594 C 218.457031 233.261719 224.886719 231.394531 231.074219 228.914062 C 235.964844 226.953125 240.707031 224.566406 245.90625 223.386719 C 248.703125 222.753906 251.46875 221.949219 254.207031 221.085938 C 261.398438 218.808594 268.152344 215.25 275.609375 213.738281 C 276.105469 213.636719 276.386719 213.339844 276.460938 212.785156 C 276.644531 211.367188 276.882812 209.957031 277.136719 208.320312 C 276.609375 208.535156 276.222656 208.675781 275.851562 208.851562 C 271.949219 210.699219 267.886719 212.132812 263.738281 213.304688 C 256.558594 215.339844 249.410156 217.425781 242.628906 220.625 C 240.078125 221.828125 237.417969 222.835938 234.738281 223.714844 C 229.835938 225.320312 225.113281 227.335938 220.453125 229.523438 C 213.265625 232.894531 205.675781 235.222656 198.199219 237.832031 C 196.8125 238.3125 196.226562 238.859375 196.011719 240.128906 Z M 196.304688 248.417969 C 198.414062 247.828125 200.40625 246.960938 202.375 246.03125 C 207.195312 243.757812 212 241.5 217.164062 240.019531 C 220.804688 238.980469 224.382812 237.640625 227.871094 236.160156 C 231.203125 234.742188 234.550781 233.40625 237.976562 232.25 C 240.828125 231.285156 243.675781 230.3125 246.5 229.269531 C 253.011719 226.863281 259.378906 224.058594 266.113281 222.261719 C 269.421875 221.378906 272.699219 220.34375 275.820312 218.894531 C 276.5 218.578125 276.808594 215.8125 276.199219 215.394531 C 276.046875 215.289062 275.75 215.316406 275.546875 215.371094 C 272.199219 216.28125 268.816406 217.0625 265.601562 218.445312 C 260.667969 220.574219 255.667969 222.535156 250.457031 223.921875 C 245.308594 225.292969 240.199219 226.761719 235.363281 229.097656 C 232.492188 230.488281 229.503906 231.707031 226.457031 232.640625 C 222.007812 234.007812 217.738281 235.777344 213.554688 237.769531 C 208.554688 240.148438 203.382812 242.019531 197.988281 243.257812 C 194.746094 244 194.734375 243.953125 194.6875 247.195312 C 194.660156 248.910156 194.652344 248.878906 196.304688 248.417969 Z M 276.179688 220.445312 C 274.164062 221.394531 272.042969 222.0625 269.941406 222.792969 C 265.734375 224.253906 261.324219 225.035156 257.1875 226.691406 C 250.128906 229.511719 243.097656 232.394531 235.808594 234.578125 C 231.449219 235.890625 227.457031 238.109375 223.148438 239.582031 C 216.097656 241.988281 209 244.324219 202.355469 247.792969 C 200.464844 248.78125 198.4375 249.460938 196.367188 250.003906 C 195.832031 250.144531 194.914062 249.886719 195.007812 250.933594 C 195.097656 251.921875 196.339844 253.535156 197.101562 253.550781 C 197.546875 253.417969 198.167969 253.332031 198.691406 253.058594 C 202.527344 251.054688 206.683594 249.855469 210.679688 248.246094 C 217.296875 245.585938 223.710938 242.40625 230.566406 240.339844 C 232.605469 239.722656 234.609375 238.984375 236.601562 238.222656 C 242.316406 236.046875 248 233.808594 253.847656 231.984375 C 261.324219 229.652344 268.746094 227.140625 276.03125 224.246094 C 276.84375 223.921875 278.132812 223.933594 278.425781 223.378906 C 278.804688 222.65625 277.730469 221.800781 277.511719 220.90625 C 277.304688 220.058594 276.847656 220.128906 276.179688 220.445312 Z M 261.421875 171.785156 C 261.601562 170.75 261.777344 169.71875 261.992188 168.472656 C 261.132812 168.746094 260.476562 168.933594 259.839844 169.164062 C 253.742188 171.371094 247.78125 173.949219 241.574219 175.863281 C 240.0625 176.328125 238.636719 177.011719 237.253906 177.761719 C 234.1875 179.433594 230.949219 180.683594 227.675781 181.859375 C 225.058594 182.800781 222.472656 183.832031 219.976562 185.050781 C 217.011719 186.5 213.957031 187.683594 210.832031 188.738281 C 207.230469 189.949219 203.710938 191.386719 200.347656 193.179688 C 198.667969 194.074219 196.953125 194.964844 195.074219 195.289062 C 193.152344 195.617188 192.171875 196.375 192.289062 198.503906 C 192.371094 199.953125 192.195312 200.03125 193.507812 199.382812 C 201.722656 195.332031 210.5625 192.921875 219.105469 189.738281 C 227.488281 186.609375 235.570312 182.796875 243.84375 179.429688 C 247.914062 177.769531 251.609375 175.253906 255.898438 174.097656 C 257.5625 173.648438 259.132812 172.960938 260.738281 172.367188 C 261.054688 172.25 261.355469 172.175781 261.421875 171.785156 Z M 260.984375 174.148438 C 260.804688 174.195312 260.625 174.21875 260.460938 174.285156 C 255.992188 176.066406 251.449219 177.65625 247.191406 179.949219 C 243.472656 181.953125 239.425781 183.230469 235.597656 184.976562 C 228.128906 188.382812 220.460938 191.246094 212.769531 194.09375 C 206.871094 196.277344 200.75 197.855469 195.09375 200.726562 C 191.820312 202.390625 191.773438 202.238281 191.785156 205.929688 C 191.785156 206.941406 192.085938 207.023438 192.910156 206.617188 C 194.777344 205.691406 196.621094 204.695312 198.5625 203.957031 C 201.644531 202.78125 204.664062 201.496094 207.566406 199.933594 C 209.40625 198.945312 211.277344 198.007812 213.277344 197.40625 C 220.660156 195.1875 227.597656 191.824219 234.734375 188.984375 C 242.8125 185.773438 250.910156 182.539062 258.335938 177.90625 C 258.648438 177.710938 258.992188 177.566406 259.328125 177.40625 C 261.179688 176.523438 261.242188 176.40625 260.984375 174.148438 Z M 260.625 179.082031 C 260.019531 178.6875 259.390625 179.476562 258.800781 179.785156 C 255.4375 181.535156 252.445312 183.996094 248.707031 185.023438 C 247.136719 185.457031 245.683594 186.179688 244.207031 186.859375 C 236.339844 190.492188 228.234375 193.5625 220.230469 196.875 C 215.527344 198.816406 210.65625 200.332031 206.128906 202.738281 C 201.792969 205.042969 197.039062 206.457031 192.683594 208.75 C 192.128906 209.042969 191.527344 209.199219 191.628906 210.023438 C 191.824219 210.972656 192.007812 211.925781 192.21875 212.875 C 192.351562 213.492188 192.609375 213.671875 193.289062 213.363281 C 200.933594 209.917969 208.417969 206.132812 216.089844 202.734375 C 224.222656 199.136719 232.179688 195.136719 240.230469 191.351562 C 242.957031 190.070312 245.792969 189.019531 248.476562 187.660156 C 251.710938 186.019531 254.921875 184.375 258.484375 183.5625 C 259.910156 183.238281 260.851562 182.59375 260.640625 180.921875 C 260.566406 180.300781 261.15625 179.429688 260.625 179.082031 Z M 265.199219 208.261719 C 256.945312 211.167969 248.832031 214.464844 240.617188 217.496094 C 229.6875 221.535156 218.511719 225.007812 207.988281 230.140625 C 205.40625 231.398438 202.738281 232.773438 199.679688 232.589844 C 199.414062 232.574219 199.222656 232.6875 199.113281 232.910156 C 198.523438 234.101562 197.527344 235.085938 197.273438 236.507812 C 197.765625 236.710938 198.046875 236.484375 198.332031 236.371094 C 206.519531 233.027344 215.046875 230.546875 223.011719 226.617188 C 228.839844 223.742188 235.214844 222.230469 241.171875 219.664062 C 246.492188 217.371094 251.824219 215.132812 257.433594 213.613281 C 262.039062 212.367188 266.632812 211.085938 271.09375 209.375 C 275.195312 207.804688 279.339844 206.28125 281.613281 202.023438 C 281.289062 202.121094 280.933594 202.195312 280.609375 202.335938 C 275.554688 204.523438 270.398438 206.429688 265.199219 208.261719 Z M 265.199219 208.261719 " fill-opacity="1" fill-rule="nonzero"/><path fill="#ffffff" d="M 212.027344 186.214844 C 215.890625 184.996094 219.363281 182.917969 223.453125 181.347656 C 221.445312 180.265625 219.617188 179.882812 217.898438 179.234375 C 211.816406 176.949219 206.140625 173.699219 200.027344 171.53125 C 192.863281 168.988281 185.65625 166.585938 178.84375 163.167969 C 177.808594 162.652344 176.703125 162.28125 175.640625 161.816406 C 174.792969 161.449219 173.988281 161.453125 173.085938 161.734375 C 169.460938 162.863281 165.957031 164.382812 162.214844 165.15625 C 156.492188 166.34375 150.855469 167.835938 145.363281 169.863281 C 143.824219 170.429688 142.214844 170.839844 140.65625 171.902344 C 145.6875 173.746094 150.117188 176.375 154.769531 178.542969 C 159.644531 180.816406 164.773438 182.484375 169.539062 185.027344 C 175.796875 188.363281 182.042969 191.734375 188.6875 194.28125 C 189.253906 194.5 189.773438 194.769531 190.417969 194.578125 C 193.390625 193.703125 196.425781 193.023438 199.191406 191.519531 C 203.277344 189.292969 207.601562 187.613281 212.027344 186.214844 Z M 178.253906 183.839844 C 177.855469 184.605469 177.183594 184.238281 176.679688 183.953125 C 172.71875 181.722656 168.570312 179.878906 164.460938 177.945312 C 163.5 177.496094 162.515625 177.082031 161.550781 176.636719 C 161.144531 176.445312 160.824219 176.140625 161.035156 175.652344 C 161.203125 175.265625 161.574219 175.175781 161.992188 175.25 C 162.5625 175.433594 163.164062 175.558594 163.699219 175.8125 C 168.296875 178.007812 173.03125 179.914062 177.425781 182.519531 C 177.925781 182.8125 178.664062 183.054688 178.253906 183.839844 Z M 184.296875 146.871094 C 183.042969 149.777344 179.167969 152.316406 175.96875 152.296875 C 172.878906 152.273438 170.429688 150.5625 170.019531 148.132812 C 169.988281 147.953125 169.894531 147.742188 169.949219 147.59375 C 170.429688 146.316406 169.632812 145.746094 168.707031 145.1875 C 168.347656 144.972656 167.6875 144.863281 167.804688 144.304688 C 167.898438 143.851562 168.511719 143.886719 168.890625 143.867188 C 170.230469 143.796875 171.234375 143.488281 171.984375 142.117188 C 172.675781 140.855469 175.269531 141.039062 176.183594 142.175781 C 176.75 142.878906 176.488281 143.550781 176.132812 144.242188 C 175.152344 146.152344 175.613281 146.917969 177.78125 147.046875 C 178.683594 147.097656 179.523438 146.890625 180.347656 146.570312 C 181.5 146.121094 182.691406 146.082031 183.902344 146.167969 C 184.417969 146.203125 184.507812 146.378906 184.296875 146.871094 Z M 110.984375 202.554688 C 110.265625 203.953125 109.539062 205.351562 108.910156 206.792969 C 108.683594 207.324219 108.375 207.34375 107.949219 207.300781 C 106.496094 207.207031 105.121094 206.75 103.796875 206.21875 C 100.476562 204.878906 97.3125 203.226562 94.71875 200.695312 C 93.515625 199.515625 93.703125 196.195312 94.910156 195.035156 C 95.320312 194.636719 95.476562 195.042969 95.6875 195.214844 C 100.019531 198.6875 105.027344 200.59375 110.433594 201.53125 C 111.269531 201.675781 111.328125 201.886719 110.984375 202.554688 Z M 124.203125 123.734375 C 123.703125 123.273438 123.46875 122.753906 123.707031 122.125 C 124.199219 120.84375 124.742188 119.578125 125.292969 118.234375 C 129.277344 123.398438 134.960938 125.34375 140.78125 127.003906 C 141.945312 127.335938 141.984375 127.753906 141.539062 128.722656 C 139.875 132.320312 139.875 132.402344 136.191406 131.132812 C 131.65625 129.566406 127.726562 126.972656 124.203125 123.734375 Z M 124.203125 123.734375 " fill-opacity="1" fill-rule="nonzero"/></svg>