<svg xmlns="http://www.w3.org/2000/svg" xmlns:xlink="http://www.w3.org/1999/xlink" width="500" zoomAndPan="magnify" viewBox="0 0 375 374.999991" height="500" preserveAspectRatio="xMidYMid meet" version="1.0"><defs><g/><clipPath id="6e49e19231"><path d="M 41.8125 127.285156 L 333.203125 127.285156 L 333.203125 201.507812 L 41.8125 201.507812 Z M 41.8125 127.285156 " clip-rule="nonzero"/></clipPath><clipPath id="7ec6a50b9e"><path d="M 187.5 127.285156 C 107.039062 127.285156 41.8125 143.898438 41.8125 164.398438 C 41.8125 184.894531 107.039062 201.507812 187.5 201.507812 C 267.960938 201.507812 333.1875 184.894531 333.1875 164.398438 C 333.1875 143.898438 267.960938 127.285156 187.5 127.285156 Z M 187.5 127.285156 " clip-rule="nonzero"/></clipPath><clipPath id="06ccf7c1ee"><path d="M 82 38.777344 L 293 38.777344 L 293 215.777344 L 82 215.777344 Z M 82 38.777344 " clip-rule="nonzero"/></clipPath></defs><g clip-path="url(#6e49e19231)"><g clip-path="url(#7ec6a50b9e)"><path fill="#009473" d="M 41.8125 127.285156 L 333.203125 127.285156 L 333.203125 201.507812 L 41.8125 201.507812 Z M 41.8125 127.285156 " fill-opacity="1" fill-rule="nonzero"/></g></g><g clip-path="url(#06ccf7c1ee)"><path fill="#02795e" d="M 291.144531 151.457031 C 287.738281 153.171875 285.863281 156.359375 283.472656 159.039062 C 282.199219 160.464844 281.976562 162.429688 281.726562 164.296875 C 281.207031 168.15625 281.675781 171.84375 283.605469 175.296875 C 283.960938 175.9375 284.386719 176.332031 285.070312 176.523438 C 286.136719 176.828125 287.15625 177.246094 288.046875 177.921875 C 289.421875 178.960938 289.566406 180.195312 288.453125 181.5 C 287.230469 182.933594 285.613281 183.777344 283.855469 184.332031 C 280.292969 185.457031 276.746094 186.628906 273.171875 187.726562 C 265.296875 190.148438 257.492188 192.800781 249.585938 195.132812 C 238.242188 198.480469 227.578125 203.574219 216.683594 208.054688 C 212.488281 209.777344 208.425781 211.875 204.300781 213.800781 C 200.0625 215.777344 196.105469 215.691406 192.011719 213.785156 C 189.664062 212.695312 187.273438 211.6875 185.082031 210.28125 C 180.25 207.1875 174.722656 205.507812 169.71875 202.761719 C 161.609375 198.3125 153.1875 194.429688 145.457031 189.289062 C 144.582031 188.707031 143.667969 188.148438 142.699219 187.753906 C 136.9375 185.425781 131.71875 182.082031 126.289062 179.125 C 122.40625 177.007812 118.578125 174.882812 115.179688 172.015625 C 114.085938 171.09375 113.164062 170.109375 112.515625 168.867188 C 112.238281 168.335938 111.992188 168.105469 111.316406 168.195312 C 104.792969 169.074219 98.53125 167.992188 92.492188 165.484375 C 91.167969 164.933594 89.921875 164.199219 88.632812 163.554688 C 85.640625 162.058594 83.761719 159.59375 82.558594 156.546875 C 81.941406 154.976562 82.351562 153.441406 82.710938 151.890625 C 84.347656 144.828125 87.613281 138.402344 90.34375 131.753906 C 95.132812 120.089844 100.671875 108.734375 104.84375 96.8125 C 108.394531 86.660156 112.691406 76.820312 117.207031 67.066406 C 119.378906 62.371094 121.636719 57.71875 124 53.117188 C 125.304688 50.570312 127.183594 48.953125 130.289062 48.613281 C 136.765625 47.910156 143.210938 46.921875 149.660156 45.988281 C 157.058594 44.917969 164.476562 44.015625 171.90625 43.195312 C 177.90625 42.53125 183.820312 41.265625 189.757812 40.195312 C 193.628906 39.496094 197.53125 39.042969 201.460938 38.867188 C 202.761719 38.808594 204.175781 38.765625 204.628906 40.414062 C 205.085938 42.089844 204.554688 43.078125 202.828125 44.050781 C 200.664062 45.277344 200.613281 45.597656 202.328125 47.441406 C 202.617188 47.753906 202.949219 48.058594 203.316406 48.269531 C 207.886719 50.886719 212.6875 52.890625 217.964844 53.503906 C 218.835938 53.605469 219.761719 53.3125 220.652344 53.144531 C 222.179688 52.855469 223.71875 52.882812 225.242188 53.046875 C 226.820312 53.214844 227.355469 53.917969 227.394531 55.539062 C 227.441406 57.320312 226.933594 58.917969 225.984375 60.429688 C 222.980469 65.226562 220.171875 70.128906 217.765625 75.261719 C 214.8125 81.5625 211.234375 87.53125 207.761719 93.554688 C 206.378906 95.949219 205.089844 98.402344 203.570312 101.171875 C 205.363281 100.695312 206.792969 100.371094 208.183594 99.925781 C 209.1875 99.601562 210.140625 99.578125 211.136719 99.894531 C 222.1875 103.433594 233.597656 105.726562 244.582031 109.492188 C 251.339844 111.808594 258.117188 114.054688 264.992188 116 C 266.902344 116.539062 267.285156 117.035156 266.8125 119 C 266.132812 121.8125 265.828125 124.664062 265.574219 127.527344 C 265.371094 129.820312 265.257812 132.117188 265.011719 134.40625 C 264.914062 135.300781 265.585938 135.179688 265.992188 135.3125 C 271.878906 137.210938 277.78125 139.054688 283.378906 141.730469 C 285.457031 142.726562 287.515625 143.75 289.484375 144.949219 C 290.351562 145.480469 291.140625 146.109375 291.789062 146.886719 C 293.039062 148.382812 292.859375 150.597656 291.144531 151.457031 Z M 291.144531 151.457031 " fill-opacity="1" fill-rule="nonzero"/></g><path fill="#00bf63" d="M 189.207031 60.03125 C 182.730469 61.5625 176.285156 63.371094 169.644531 64.054688 C 164.613281 64.574219 159.738281 65.757812 154.816406 66.800781 C 154.222656 66.929688 153.75 67.082031 153.546875 67.757812 C 153.027344 69.472656 152.09375 70.988281 151.191406 72.515625 C 147.863281 78.128906 144.46875 83.71875 142.15625 89.847656 C 136.03125 106.101562 129.078125 121.988281 121.335938 137.539062 C 120.34375 139.53125 119.546875 141.625 118.894531 143.800781 C 119.125 143.820312 119.226562 143.863281 119.296875 143.832031 C 123.914062 141.660156 128.683594 139.941406 133.746094 139.171875 C 134.59375 139.042969 134.671875 138.589844 134.746094 137.910156 C 135.246094 133.4375 135.878906 128.976562 136.261719 124.492188 C 136.433594 122.472656 137.378906 121.339844 139.132812 120.632812 C 143.445312 118.898438 147.789062 117.1875 152.300781 116.089844 C 158.730469 114.527344 165.171875 113.046875 171.394531 110.738281 C 174.265625 109.671875 177.226562 108.824219 180.28125 108.402344 C 183.046875 108.019531 185.695312 107.179688 188.355469 106.359375 C 192.527344 105.078125 196.332031 102.78125 200.65625 101.941406 C 201.3125 101.8125 201.5 101.183594 201.773438 100.703125 C 203.378906 97.867188 204.925781 94.996094 206.546875 92.167969 C 209.886719 86.347656 213.449219 80.644531 216.15625 74.488281 C 218.480469 69.203125 221.410156 64.265625 224.441406 59.378906 C 225.136719 58.257812 225.707031 57.125 225.6875 55.761719 C 225.679688 55.140625 225.476562 54.835938 224.8125 54.699219 C 223.402344 54.410156 222.027344 54.582031 220.675781 54.902344 C 214.65625 56.335938 208.578125 57.386719 202.429688 58.117188 C 198.011719 58.640625 193.574219 59 189.207031 60.03125 Z M 184.964844 98.660156 C 182.804688 102.050781 179.894531 104.210938 176.398438 104.296875 C 173.804688 104.308594 172.015625 103.835938 170.394531 102.832031 C 168.730469 101.796875 167.8125 100.261719 167.796875 98.304688 C 167.789062 97.363281 167.453125 96.8125 166.667969 96.359375 C 165.914062 95.925781 165.167969 95.335938 165.3125 94.34375 C 165.460938 93.316406 166.402344 93.003906 167.238281 92.886719 C 168.644531 92.691406 169.695312 92.238281 170.675781 91.046875 C 172.070312 89.347656 175.214844 89.527344 176.78125 91.101562 C 177.738281 92.058594 177.839844 93.175781 177.40625 94.417969 C 177.273438 94.792969 176.804688 95.195312 177.183594 95.59375 C 177.558594 95.988281 178.085938 95.769531 178.546875 95.648438 C 179.972656 95.273438 181.324219 94.601562 182.867188 94.738281 C 183.957031 94.832031 185.273438 94.644531 185.871094 95.6875 C 186.496094 96.78125 185.542969 97.746094 184.964844 98.660156 Z M 114.734375 147.207031 C 116.570312 145.644531 117.054688 143.421875 117.835938 141.324219 C 118.46875 139.621094 119.089844 137.902344 119.855469 136.253906 C 125.367188 124.332031 131.429688 112.664062 136.089844 100.355469 C 138.054688 95.15625 139.976562 89.933594 142.292969 84.871094 C 144.796875 79.402344 148.082031 74.378906 151.171875 69.246094 C 151.480469 68.730469 152.160156 68.167969 151.851562 67.609375 C 151.582031 67.117188 150.792969 67.585938 150.265625 67.460938 C 149.953125 67.460938 149.664062 67.488281 149.378906 67.457031 C 148.570312 67.363281 147.761719 67.246094 146.957031 67.136719 C 140.777344 66.308594 135.648438 63.394531 131.144531 59.214844 C 129.910156 58.070312 129.785156 56.769531 130.351562 55.285156 C 130.921875 53.796875 132.199219 53.335938 133.578125 52.941406 C 139.71875 51.175781 146.085938 51.097656 152.367188 50.464844 C 160.097656 49.683594 167.8125 48.964844 175.421875 47.277344 C 180.667969 46.113281 186.074219 45.988281 191.386719 45.222656 C 194.945312 44.710938 198.535156 44.316406 201.789062 42.609375 C 202.335938 42.320312 203.199219 42.144531 202.96875 41.230469 C 202.726562 40.257812 201.886719 40.265625 201.097656 40.347656 C 198.953125 40.566406 196.808594 40.785156 194.667969 41.054688 C 190.101562 41.636719 185.613281 42.644531 181.09375 43.496094 C 174.257812 44.785156 167.328125 45.351562 160.433594 46.203125 C 150.304688 47.457031 140.214844 48.988281 130.097656 50.328125 C 128.675781 50.515625 127.691406 51.070312 126.921875 52.230469 C 124.425781 55.996094 122.449219 60.015625 120.554688 64.121094 C 115.140625 75.847656 110.246094 87.773438 106.015625 99.96875 C 102.996094 108.683594 98.609375 116.824219 95.394531 125.460938 C 94.210938 128.648438 92.859375 131.789062 91.34375 134.835938 C 88.472656 140.613281 86.078125 146.550781 84.46875 152.804688 C 84.191406 153.886719 84.003906 154.988281 84.457031 156.050781 C 85.496094 158.5 87.015625 160.546875 89.449219 161.789062 C 91.929688 163.054688 94.398438 164.328125 97.09375 165.097656 C 101.269531 166.292969 105.472656 167.054688 109.84375 166.417969 C 111.027344 166.242188 111.722656 165.976562 111.074219 164.589844 C 110.683594 163.757812 110.683594 162.8125 110.734375 161.898438 C 110.976562 157.402344 112.125 153.109375 113.714844 148.925781 C 113.949219 148.304688 114.253906 147.617188 114.734375 147.207031 Z M 122.183594 65.511719 C 122.4375 64.804688 123.011719 64.796875 123.554688 65.316406 C 123.828125 65.582031 124.132812 65.828125 124.367188 66.125 C 128.5625 71.363281 134.511719 73.441406 140.664062 75.117188 C 142.355469 75.578125 142.570312 75.769531 142.207031 77.441406 C 141.710938 79.699219 140.21875 81.460938 139.265625 83.492188 C 138.976562 84.105469 138.351562 83.945312 137.855469 83.832031 C 131.273438 82.296875 125.4375 79.386719 120.730469 74.433594 C 119.886719 73.546875 119.894531 73.460938 119.960938 71.949219 C 119.800781 69.496094 121.40625 67.644531 122.183594 65.511719 Z M 110.753906 153.484375 C 110.097656 156.050781 108.652344 158.292969 107.609375 160.703125 C 107.210938 161.632812 105.964844 161.492188 104.992188 161.585938 C 102.488281 161.226562 99.996094 160.667969 97.730469 159.5 C 95.226562 158.207031 92.703125 156.902344 90.667969 154.875 C 88.828125 153.039062 87.933594 150.992188 89.113281 148.402344 C 89.570312 147.40625 89.828125 146.324219 90.207031 145.289062 C 90.710938 143.910156 91.3125 143.699219 92.417969 144.683594 C 96.078125 147.949219 100.527344 149.679688 105.042969 151.289062 C 106.40625 151.773438 107.796875 152.011719 109.265625 151.867188 C 110.511719 151.746094 111.054688 152.316406 110.753906 153.484375 Z M 110.753906 153.484375 " fill-opacity="1" fill-rule="nonzero"/><path fill="#009473" d="M 188.511719 108.515625 C 194.957031 105.902344 201.589844 103.851562 208.21875 101.792969 C 209.039062 101.535156 209.816406 101.234375 210.730469 101.546875 C 219.761719 104.636719 229.085938 106.714844 238.21875 109.460938 C 244.777344 111.433594 251.230469 113.753906 257.746094 115.882812 C 259.605469 116.492188 261.503906 116.984375 263.382812 117.527344 C 260.023438 118.898438 256.742188 120.078125 253.542969 121.488281 C 252.949219 121.75 252.542969 121.605469 252.21875 121.070312 C 252.09375 120.867188 251.9375 120.683594 251.789062 120.496094 C 249.59375 117.632812 247.035156 116.949219 243.378906 118.460938 C 242.476562 118.835938 242.046875 118.902344 242.160156 117.75 C 242.359375 115.703125 239.414062 114.351562 237.195312 114.460938 C 235.847656 114.527344 234.492188 115.328125 233.285156 115.179688 C 232.15625 115.042969 231.851562 113.242188 230.769531 112.484375 C 229.476562 111.578125 228.160156 111.308594 226.707031 111.871094 C 225.863281 112.199219 225.042969 112.609375 224.25 113.050781 C 223.707031 113.347656 223.421875 113.410156 222.996094 112.785156 C 220.457031 109.074219 218.457031 108.507812 214.324219 110.316406 C 213.496094 110.675781 213.101562 110.828125 212.757812 109.726562 C 212.109375 107.628906 210.441406 106.539062 208.34375 106.367188 C 206.335938 106.203125 204.824219 107.265625 203.984375 109.070312 C 203.566406 109.96875 203.210938 110.128906 202.3125 109.699219 C 201.246094 109.1875 200.042969 109.328125 198.921875 109.5625 C 197.070312 109.945312 196.421875 110.746094 196.132812 112.84375 C 193.023438 111.394531 189.867188 110.171875 186.394531 109.4375 C 187.117188 108.796875 187.867188 108.777344 188.511719 108.515625 Z M 188.511719 108.515625 " fill-opacity="1" fill-rule="nonzero"/><path fill="#ffffff" d="M 124.671875 154.542969 C 124.402344 155.222656 124.953125 155.601562 125.503906 155.84375 C 128.097656 156.96875 130.691406 158.097656 133.296875 159.195312 C 134.890625 159.871094 136.425781 160.648438 137.886719 161.582031 C 140.84375 163.472656 143.929688 165.195312 147.210938 166.378906 C 153.09375 168.5 158.183594 172.023438 163.601562 174.984375 C 170.324219 178.660156 176.898438 182.632812 183.914062 185.753906 C 187.273438 187.25 190.875 188.210938 193.910156 190.433594 C 194.664062 190.988281 194.957031 191.429688 194.566406 192.28125 C 194.425781 192.582031 194.375 192.921875 194.292969 193.25 C 193.628906 195.828125 193.609375 195.832031 191.230469 194.75 C 188.253906 193.394531 185.402344 191.84375 182.746094 189.921875 C 179.386719 187.484375 175.585938 185.847656 171.855469 184.085938 C 170.164062 183.285156 168.476562 182.472656 166.921875 181.429688 C 162.152344 178.234375 156.789062 176.195312 151.714844 173.605469 C 150.433594 172.949219 149.15625 172.285156 147.925781 171.539062 C 140.25 166.902344 132.285156 162.777344 124.429688 158.460938 C 123.800781 158.117188 123.152344 157.785156 122.402344 157.785156 C 122.050781 157.785156 121.714844 157.84375 121.5625 158.210938 C 121.414062 158.578125 121.617188 158.859375 121.867188 159.097656 C 122.003906 159.226562 122.167969 159.339844 122.339844 159.421875 C 128.734375 162.511719 134.710938 166.363281 141.042969 169.578125 C 145.269531 171.726562 149.097656 174.617188 153.503906 176.441406 C 161.585938 179.785156 168.730469 184.96875 176.808594 188.328125 C 178.882812 189.191406 180.773438 190.460938 182.648438 191.71875 C 185.765625 193.808594 189.023438 195.625 192.644531 196.699219 C 193.179688 196.859375 193.304688 197.105469 193.257812 197.625 C 193.160156 198.671875 193.085938 199.726562 193.078125 200.78125 C 193.078125 201.640625 192.785156 201.800781 192.050781 201.402344 C 191.292969 200.992188 190.496094 200.652344 189.738281 200.242188 C 181.835938 195.9375 173.667969 192.144531 166.070312 187.25 C 161.859375 184.535156 157.027344 182.847656 152.675781 180.300781 C 146.761719 176.839844 140.570312 173.859375 134.835938 170.070312 C 131.378906 167.789062 127.523438 166.273438 123.8125 164.488281 C 123.597656 164.382812 123.367188 164.300781 123.132812 164.25 C 122.664062 164.140625 122.128906 164.003906 121.867188 164.5625 C 121.5625 165.21875 122.070312 165.539062 122.546875 165.777344 C 124.132812 166.574219 125.707031 167.398438 127.332031 168.105469 C 130.246094 169.375 132.882812 171.121094 135.617188 172.707031 C 144.328125 177.753906 153.042969 182.796875 162.148438 187.121094 C 166.488281 189.179688 170.457031 191.898438 174.535156 194.417969 C 175.84375 195.226562 177.164062 196.011719 178.636719 196.476562 C 182.195312 197.597656 185.207031 199.820312 188.558594 201.359375 C 189.515625 201.800781 190.433594 202.359375 191.429688 202.679688 C 192.835938 203.132812 193.398438 204.027344 193.269531 205.539062 C 187.332031 203.734375 181.992188 200.792969 176.585938 198.019531 C 173.980469 196.679688 171.398438 195.328125 168.636719 194.324219 C 165.738281 193.269531 163.058594 191.730469 160.464844 190.101562 C 154.886719 186.601562 148.75 184.160156 143.09375 180.816406 C 139.292969 178.574219 135.390625 176.535156 131.351562 174.722656 C 128.402344 173.402344 126.074219 171.085938 123.582031 169.0625 C 122.984375 168.578125 122.460938 167.976562 121.804688 167.601562 C 118.1875 165.519531 118.121094 162.160156 118.644531 158.683594 C 118.871094 157.183594 119.460938 155.722656 120.03125 154.300781 C 121.300781 151.140625 123.613281 149.976562 126.929688 150.796875 C 129.269531 151.375 131.394531 152.53125 133.601562 153.460938 C 147.839844 159.480469 161.574219 166.484375 174.949219 174.253906 C 180.65625 177.566406 186.796875 180.136719 192.75 183.027344 C 194.128906 183.695312 195.523438 184.339844 196.941406 184.921875 C 197.738281 185.246094 197.707031 185.574219 197.199219 186.144531 C 196.554688 186.867188 196.058594 187.707031 195.757812 188.621094 C 195.4375 189.597656 195.007812 189.488281 194.3125 188.988281 C 192.074219 187.386719 189.542969 186.390625 187.019531 185.320312 C 182.65625 183.46875 178.339844 181.480469 174.34375 178.878906 C 170.480469 176.363281 166.046875 174.863281 162.285156 172.179688 C 157.476562 168.757812 152.117188 166.445312 146.707031 164.199219 C 143.914062 163.039062 141.296875 161.519531 138.722656 159.929688 C 134.785156 157.492188 130.402344 156.023438 126.160156 154.246094 C 125.617188 154.019531 124.957031 153.832031 124.671875 154.542969 Z M 141.320312 131.804688 C 142.769531 132.140625 144.195312 132.550781 145.574219 133.117188 C 154.839844 136.921875 163.773438 141.476562 173.097656 145.164062 C 178.039062 147.113281 182.714844 149.71875 187.566406 151.902344 C 190.191406 153.085938 190.246094 152.964844 190.652344 150.226562 C 190.6875 149.992188 190.734375 149.757812 190.75 149.519531 C 190.78125 149.085938 190.617188 148.921875 190.144531 148.757812 C 187.800781 147.933594 185.425781 147.140625 183.175781 146.09375 C 173.050781 141.378906 163.285156 135.929688 152.910156 131.722656 C 148.390625 129.890625 144.117188 127.449219 139.757812 125.226562 C 138.664062 124.667969 138.152344 124.667969 138.105469 126.078125 C 138.070312 127.222656 137.84375 128.359375 137.71875 129.503906 C 137.332031 133.070312 136.65625 136.605469 136.714844 140.222656 C 136.734375 141.464844 137.199219 142.1875 138.242188 142.710938 C 142.828125 145 147.257812 147.605469 152.0625 149.464844 C 162.261719 153.410156 172.40625 157.476562 182.265625 162.234375 C 185.003906 163.558594 187.777344 164.828125 190.628906 166.261719 C 190.394531 164.953125 190.171875 163.839844 190 162.714844 C 189.933594 162.28125 189.699219 162.039062 189.347656 161.839844 C 187.890625 161.011719 186.476562 160.113281 185.007812 159.296875 C 179.578125 156.285156 173.644531 154.417969 168.109375 151.664062 C 160.769531 148.011719 153.425781 144.371094 145.730469 141.5 C 143.9375 140.832031 142.136719 140.167969 140.347656 139.484375 C 139.714844 139.246094 139.179688 138.851562 139.546875 138.085938 C 139.890625 137.367188 140.464844 137.667969 141.027344 137.871094 C 149.914062 141.101562 158.601562 144.785156 166.964844 149.203125 C 172.613281 152.1875 178.816406 153.90625 184.429688 156.980469 C 186.21875 157.960938 188.042969 158.882812 189.855469 160.109375 C 190.203125 158.53125 190.132812 157.140625 190.25 155.765625 C 190.324219 154.902344 190.0625 154.441406 189.148438 154.285156 C 187.09375 153.929688 185.238281 153.011719 183.390625 152.085938 C 181.289062 151.035156 179.152344 150.054688 177.082031 148.941406 C 172.125 146.273438 166.714844 144.664062 161.652344 142.25 C 157.457031 140.246094 153.269531 138.226562 148.972656 136.4375 C 146.277344 135.3125 143.675781 133.957031 140.847656 133.15625 C 140.3125 133.003906 139.523438 132.800781 139.726562 132.105469 C 139.960938 131.277344 140.734375 131.667969 141.320312 131.804688 Z M 200.667969 49.023438 C 198.554688 49.691406 196.332031 49.792969 194.183594 50.28125 C 188.390625 51.59375 182.578125 52.847656 176.703125 53.691406 C 172.4375 54.304688 168.105469 54.410156 163.816406 54.875 C 155.949219 55.722656 148.222656 57.488281 140.402344 58.625 C 139.542969 58.75 138.191406 59.4375 137.980469 58.089844 C 137.777344 56.808594 139.273438 56.929688 140.132812 56.777344 C 144.046875 56.078125 147.984375 55.503906 151.898438 54.804688 C 156.523438 53.980469 161.140625 53.179688 165.839844 52.863281 C 170.285156 52.566406 174.753906 52.386719 179.140625 51.539062 C 185.773438 50.253906 192.359375 48.753906 199.050781 47.796875 C 199.457031 47.738281 200.261719 47.820312 199.957031 47.105469 C 199.726562 46.570312 199.90625 45.398438 198.589844 45.761719 C 195.8125 46.53125 192.953125 46.878906 190.101562 47.257812 C 185.449219 47.875 180.699219 48.050781 176.140625 49.082031 C 165.285156 51.542969 154.226562 52.179688 143.21875 53.28125 C 139.953125 53.605469 136.773438 54.230469 133.621094 55.058594 C 131.875 55.515625 131.566406 56.816406 132.851562 58.019531 C 136.085938 61.046875 139.765625 63.367188 144.039062 64.59375 C 147.527344 65.59375 151.046875 65.945312 154.65625 64.882812 C 157.316406 64.097656 160.066406 63.621094 162.789062 63.0625 C 166.828125 62.234375 170.988281 62.195312 175.003906 61.203125 C 185.859375 58.523438 196.808594 56.421875 207.972656 55.523438 C 209.757812 55.382812 211.605469 55.234375 213.542969 54.421875 C 212.269531 54.035156 211.222656 53.828125 210.273438 53.402344 C 208.953125 52.800781 207.679688 52.730469 206.234375 52.9375 C 203.238281 53.367188 200.359375 54.285156 197.378906 54.777344 C 190.667969 55.882812 183.882812 56.53125 177.214844 57.902344 C 174.539062 58.453125 171.925781 59.28125 169.207031 59.621094 C 161.503906 60.585938 153.761719 61.257812 146.128906 62.722656 C 145.441406 62.851562 144.542969 63.082031 144.324219 62.109375 C 144.097656 61.109375 145.039062 61.019531 145.710938 60.835938 C 149.570312 59.78125 153.566406 59.625 157.496094 59.046875 C 163.085938 58.226562 168.773438 58.085938 174.277344 56.648438 C 177.855469 55.710938 181.507812 55.175781 185.164062 54.726562 C 191.871094 53.90625 198.550781 52.964844 205.351562 51.417969 C 203.984375 50.59375 202.796875 49.890625 201.621094 49.160156 C 201.308594 48.964844 201.007812 48.917969 200.667969 49.023438 Z M 211.539062 111.871094 C 211.597656 109.683594 210.414062 108.109375 208.566406 107.828125 C 206.992188 107.585938 205.589844 108.699219 204.96875 110.691406 C 204.882812 110.96875 204.824219 111.25 204.738281 111.523438 C 204.359375 112.679688 203.761719 112.902344 203.070312 111.976562 C 202.199219 110.824219 201.089844 110.773438 199.863281 110.871094 C 199.027344 110.9375 198.085938 111.082031 197.839844 111.945312 C 197.566406 112.894531 198.40625 113.488281 199.074219 114.039062 C 199.21875 114.160156 199.40625 114.226562 199.582031 114.304688 C 205.152344 116.753906 210.695312 119.277344 216.480469 121.195312 C 222.347656 123.144531 228.101562 125.402344 233.816406 127.75 C 235.230469 128.332031 236.253906 128.300781 237.507812 127.582031 C 239.800781 126.265625 242.277344 125.347656 244.789062 124.53125 C 246.523438 123.96875 248.238281 123.355469 249.980469 122.832031 C 250.9375 122.542969 250.945312 122.195312 250.371094 121.457031 C 248.375 118.890625 245.9375 118.660156 242.792969 120.808594 C 242.207031 121.207031 241.640625 121.859375 240.871094 121.429688 C 240.046875 120.972656 240.457031 120.175781 240.550781 119.484375 C 240.84375 117.328125 239.804688 116.046875 237.601562 116.113281 C 235.882812 116.164062 234.152344 116.433594 232.851562 117.785156 C 232.53125 118.117188 232.183594 118.371094 231.714844 118.125 C 231.246094 117.882812 231.292969 117.457031 231.332031 117 C 231.566406 114.101562 229.167969 112.410156 226.574219 113.644531 C 225.925781 113.949219 225.300781 114.320312 224.707031 114.722656 C 222.804688 116.011719 222.8125 116.023438 221.902344 113.992188 C 220.964844 111.910156 219.507812 110.78125 217.804688 110.933594 C 216.199219 111.082031 214.746094 111.6875 213.453125 112.664062 C 212.988281 113.015625 212.722656 113.839844 211.945312 113.464844 C 211.207031 113.109375 211.609375 112.363281 211.539062 111.871094 Z M 196.300781 193.660156 C 196.261719 193.898438 196.144531 194.121094 196.117188 194.355469 C 196.066406 194.808594 195.546875 195.289062 195.933594 195.683594 C 196.324219 196.078125 196.84375 195.644531 197.28125 195.527344 C 202.816406 194.09375 208.238281 192.316406 213.339844 189.710938 C 219.515625 186.558594 226.164062 184.628906 232.566406 182.0625 C 237.625 180.03125 242.53125 177.5625 247.910156 176.347656 C 250.800781 175.691406 253.664062 174.859375 256.496094 173.960938 C 263.933594 171.605469 270.917969 167.925781 278.632812 166.363281 C 279.144531 166.257812 279.4375 165.949219 279.511719 165.378906 C 279.703125 163.910156 279.949219 162.453125 280.210938 160.757812 C 279.667969 160.984375 279.265625 161.128906 278.882812 161.308594 C 274.84375 163.21875 270.644531 164.703125 266.351562 165.917969 C 258.925781 168.019531 251.53125 170.179688 244.515625 173.488281 C 241.878906 174.730469 239.128906 175.773438 236.355469 176.683594 C 231.285156 178.34375 226.402344 180.425781 221.582031 182.691406 C 214.144531 186.179688 206.292969 188.585938 198.5625 191.285156 C 197.128906 191.785156 196.519531 192.347656 196.300781 193.660156 Z M 196.601562 202.234375 C 198.78125 201.628906 200.84375 200.726562 202.882812 199.765625 C 207.867188 197.414062 212.839844 195.078125 218.175781 193.550781 C 221.945312 192.472656 225.644531 191.089844 229.253906 189.554688 C 232.699219 188.089844 236.160156 186.707031 239.703125 185.511719 C 242.65625 184.515625 245.601562 183.507812 248.523438 182.429688 C 255.257812 179.941406 261.84375 177.039062 268.8125 175.179688 C 272.234375 174.265625 275.621094 173.199219 278.851562 171.695312 C 279.554688 171.371094 279.875 168.511719 279.242188 168.074219 C 279.085938 167.96875 278.78125 167.996094 278.566406 168.050781 C 275.101562 168.992188 271.605469 169.804688 268.28125 171.234375 C 263.175781 173.433594 258.003906 175.460938 252.617188 176.898438 C 247.289062 178.316406 242.003906 179.835938 237 182.253906 C 234.03125 183.6875 230.941406 184.949219 227.792969 185.917969 C 223.1875 187.328125 218.773438 189.160156 214.445312 191.21875 C 209.273438 193.683594 203.921875 195.617188 198.34375 196.898438 C 194.988281 197.664062 194.980469 197.617188 194.925781 200.972656 C 194.898438 202.742188 194.890625 202.710938 196.601562 202.234375 Z M 279.222656 173.300781 C 277.140625 174.285156 274.941406 174.972656 272.769531 175.730469 C 268.417969 177.242188 263.859375 178.050781 259.578125 179.761719 C 252.277344 182.679688 245.003906 185.660156 237.464844 187.921875 C 232.953125 189.277344 228.828125 191.574219 224.367188 193.09375 C 217.074219 195.585938 209.734375 198.003906 202.859375 201.589844 C 200.90625 202.609375 198.808594 203.3125 196.664062 203.875 C 196.113281 204.019531 195.164062 203.757812 195.261719 204.835938 C 195.351562 205.863281 196.636719 207.527344 197.425781 207.546875 C 197.886719 207.40625 198.527344 207.320312 199.070312 207.039062 C 203.039062 204.964844 207.339844 203.722656 211.46875 202.058594 C 218.316406 199.304688 224.949219 196.019531 232.042969 193.878906 C 234.152344 193.242188 236.222656 192.476562 238.285156 191.691406 C 244.195312 189.441406 250.074219 187.125 256.125 185.238281 C 263.855469 182.824219 271.535156 180.226562 279.066406 177.234375 C 279.910156 176.898438 281.242188 176.910156 281.542969 176.335938 C 281.9375 175.585938 280.824219 174.703125 280.597656 173.777344 C 280.382812 172.902344 279.914062 172.976562 279.222656 173.300781 Z M 263.957031 122.96875 C 264.140625 121.898438 264.328125 120.832031 264.550781 119.542969 C 263.660156 119.824219 262.980469 120.019531 262.320312 120.257812 C 256.011719 122.539062 249.847656 125.207031 243.429688 127.1875 C 241.867188 127.667969 240.386719 128.375 238.957031 129.152344 C 235.789062 130.878906 232.4375 132.175781 229.054688 133.390625 C 226.34375 134.363281 223.667969 135.429688 221.085938 136.691406 C 218.019531 138.1875 214.859375 139.414062 211.628906 140.503906 C 207.902344 141.757812 204.265625 143.246094 200.785156 145.097656 C 199.046875 146.027344 197.269531 146.945312 195.332031 147.277344 C 193.339844 147.621094 192.328125 148.40625 192.449219 150.605469 C 192.535156 152.105469 192.347656 152.183594 193.707031 151.515625 C 202.207031 147.328125 211.351562 144.835938 220.183594 141.539062 C 228.859375 138.300781 237.21875 134.359375 245.773438 130.875 C 249.984375 129.160156 253.808594 126.558594 258.246094 125.359375 C 259.964844 124.894531 261.585938 124.183594 263.25 123.570312 C 263.578125 123.449219 263.890625 123.371094 263.957031 122.96875 Z M 263.503906 125.414062 C 263.316406 125.460938 263.132812 125.488281 262.964844 125.554688 C 258.339844 127.394531 253.640625 129.042969 249.238281 131.414062 C 245.390625 133.484375 241.207031 134.804688 237.246094 136.613281 C 229.519531 140.136719 221.585938 143.101562 213.632812 146.042969 C 207.53125 148.304688 201.199219 149.933594 195.347656 152.90625 C 191.964844 154.625 191.914062 154.46875 191.925781 158.285156 C 191.929688 159.335938 192.238281 159.417969 193.089844 159 C 195.019531 158.042969 196.929688 157.011719 198.9375 156.246094 C 202.125 155.03125 205.25 153.699219 208.25 152.085938 C 210.152344 151.0625 212.089844 150.089844 214.15625 149.46875 C 221.796875 147.175781 228.972656 143.699219 236.355469 140.761719 C 244.707031 137.4375 253.085938 134.089844 260.765625 129.300781 C 261.089844 129.097656 261.445312 128.945312 261.789062 128.78125 C 263.707031 127.871094 263.773438 127.746094 263.503906 125.414062 Z M 263.132812 130.515625 C 262.507812 130.105469 261.859375 130.925781 261.246094 131.246094 C 257.765625 133.054688 254.675781 135.597656 250.804688 136.664062 C 249.179688 137.109375 247.675781 137.859375 246.152344 138.5625 C 238.011719 142.320312 229.628906 145.496094 221.351562 148.917969 C 216.484375 150.929688 211.449219 152.5 206.765625 154.984375 C 202.277344 157.367188 197.359375 158.835938 192.855469 161.203125 C 192.28125 161.507812 191.660156 161.667969 191.765625 162.519531 C 191.96875 163.503906 192.160156 164.488281 192.375 165.46875 C 192.511719 166.109375 192.78125 166.292969 193.480469 165.976562 C 201.386719 162.410156 209.132812 158.496094 217.066406 154.984375 C 225.480469 151.261719 233.710938 147.125 242.039062 143.210938 C 244.855469 141.882812 247.792969 140.796875 250.566406 139.386719 C 253.914062 137.691406 257.234375 135.988281 260.917969 135.152344 C 262.394531 134.816406 263.367188 134.148438 263.152344 132.417969 C 263.070312 131.773438 263.683594 130.875 263.132812 130.515625 Z M 267.863281 160.699219 C 259.328125 163.707031 250.933594 167.113281 242.441406 170.253906 C 231.132812 174.429688 219.574219 178.019531 208.6875 183.332031 C 206.015625 184.632812 203.257812 186.050781 200.089844 185.863281 C 199.820312 185.847656 199.621094 185.964844 199.507812 186.195312 C 198.898438 187.425781 197.867188 188.449219 197.601562 189.914062 C 198.113281 190.128906 198.40625 189.894531 198.699219 189.773438 C 207.167969 186.3125 215.988281 183.75 224.226562 179.683594 C 230.253906 176.710938 236.847656 175.148438 243.011719 172.492188 C 248.515625 170.121094 254.03125 167.804688 259.832031 166.234375 C 264.59375 164.945312 269.347656 163.621094 273.964844 161.851562 C 278.207031 160.226562 282.492188 158.648438 284.84375 154.246094 C 284.507812 154.347656 284.140625 154.421875 283.804688 154.570312 C 278.574219 156.835938 273.246094 158.804688 267.863281 160.699219 Z M 267.863281 160.699219 " fill-opacity="1" fill-rule="nonzero"/><path fill="#ffffff" d="M 212.867188 137.894531 C 216.863281 136.636719 220.453125 134.484375 224.683594 132.859375 C 222.605469 131.742188 220.71875 131.34375 218.9375 130.675781 C 212.644531 128.308594 206.777344 124.945312 200.453125 122.703125 C 193.042969 120.074219 185.589844 117.59375 178.539062 114.058594 C 177.46875 113.519531 176.328125 113.136719 175.230469 112.660156 C 174.351562 112.277344 173.515625 112.28125 172.585938 112.570312 C 168.832031 113.742188 165.210938 115.3125 161.339844 116.113281 C 155.421875 117.339844 149.589844 118.886719 143.910156 120.980469 C 142.316406 121.566406 140.652344 121.992188 139.042969 123.089844 C 144.246094 124.996094 148.828125 127.714844 153.640625 129.960938 C 158.679688 132.3125 163.988281 134.039062 168.914062 136.664062 C 175.386719 140.117188 181.851562 143.605469 188.722656 146.238281 C 189.308594 146.464844 189.847656 146.742188 190.511719 146.546875 C 193.589844 145.640625 196.726562 144.9375 199.589844 143.382812 C 203.8125 141.078125 208.285156 139.339844 212.867188 137.894531 Z M 177.929688 135.4375 C 177.515625 136.230469 176.824219 135.847656 176.300781 135.554688 C 172.203125 133.25 167.914062 131.339844 163.664062 129.34375 C 162.667969 128.875 161.652344 128.449219 160.65625 127.984375 C 160.234375 127.789062 159.902344 127.476562 160.121094 126.96875 C 160.292969 126.566406 160.675781 126.472656 161.109375 126.550781 C 161.699219 126.742188 162.320312 126.871094 162.875 127.136719 C 167.632812 129.402344 172.53125 131.375 177.074219 134.070312 C 177.59375 134.378906 178.355469 134.625 177.929688 135.4375 Z M 184.179688 97.199219 C 182.882812 100.203125 178.875 102.832031 175.566406 102.808594 C 172.371094 102.789062 169.835938 101.015625 169.414062 98.503906 C 169.382812 98.316406 169.28125 98.101562 169.339844 97.945312 C 169.839844 96.625 169.015625 96.035156 168.054688 95.457031 C 167.683594 95.234375 167 95.125 167.121094 94.542969 C 167.21875 94.078125 167.851562 94.113281 168.246094 94.09375 C 169.632812 94.019531 170.667969 93.699219 171.445312 92.28125 C 172.160156 90.976562 174.84375 91.167969 175.789062 92.34375 C 176.375 93.070312 176.101562 93.765625 175.738281 94.476562 C 174.722656 96.457031 175.199219 97.246094 177.441406 97.378906 C 178.375 97.433594 179.246094 97.21875 180.097656 96.886719 C 181.289062 96.425781 182.519531 96.382812 183.773438 96.472656 C 184.308594 96.507812 184.398438 96.691406 184.179688 97.199219 Z M 108.351562 154.792969 C 107.605469 156.242188 106.851562 157.691406 106.203125 159.183594 C 105.96875 159.726562 105.648438 159.75 105.210938 159.707031 C 103.707031 159.605469 102.285156 159.136719 100.914062 158.585938 C 97.476562 157.199219 94.207031 155.492188 91.523438 152.871094 C 90.277344 151.652344 90.472656 148.21875 91.71875 147.015625 C 92.144531 146.605469 92.308594 147.027344 92.527344 147.203125 C 97.003906 150.796875 102.183594 152.769531 107.777344 153.738281 C 108.640625 153.886719 108.703125 154.105469 108.351562 154.792969 Z M 122.023438 73.265625 C 121.507812 72.789062 121.261719 72.253906 121.511719 71.601562 C 122.015625 70.273438 122.578125 68.96875 123.148438 67.578125 C 127.269531 72.917969 133.152344 74.933594 139.171875 76.648438 C 140.375 76.992188 140.417969 77.425781 139.953125 78.425781 C 138.230469 82.148438 138.230469 82.234375 134.421875 80.917969 C 129.730469 79.300781 125.664062 76.617188 122.023438 73.265625 Z M 122.023438 73.265625 " fill-opacity="1" fill-rule="nonzero"/><g fill="#02795e" fill-opacity="1"><g transform="translate(21.657328, 303.20752)"><g><path d="M 16.703125 -9.8125 L 5.78125 -9.8125 C 4.007812 -9.8125 3.125 -10.945312 3.125 -13.21875 L 3.125 -60.09375 C 3.125 -62.351562 4.007812 -63.484375 5.78125 -63.484375 L 16.703125 -63.484375 C 21.222656 -63.484375 25.132812 -62.289062 28.4375 -59.90625 C 31.988281 -57.21875 33.765625 -53.640625 33.765625 -49.171875 C 33.765625 -45.203125 32.144531 -42.175781 28.90625 -40.09375 C 34.769531 -37.519531 37.703125 -33.175781 37.703125 -27.0625 C 37.703125 -22.113281 35.726562 -18 31.78125 -14.71875 C 27.84375 -11.445312 22.816406 -9.8125 16.703125 -9.8125 Z M 16.703125 -42.015625 C 19.515625 -42.015625 22.019531 -42.472656 24.21875 -43.390625 C 27.03125 -44.679688 28.4375 -46.609375 28.4375 -49.171875 C 28.4375 -52.171875 27.210938 -54.421875 24.765625 -55.921875 C 22.328125 -57.421875 19.640625 -58.171875 16.703125 -58.171875 L 8.4375 -58.171875 L 8.4375 -42.015625 Z M 16.703125 -15.140625 C 20.921875 -15.140625 24.5 -16.117188 27.4375 -18.078125 C 30.738281 -20.273438 32.390625 -23.269531 32.390625 -27.0625 C 32.390625 -29.207031 31.867188 -30.890625 30.828125 -32.109375 C 28.992188 -34.429688 26 -35.835938 21.84375 -36.328125 C 20 -36.578125 15.53125 -36.703125 8.4375 -36.703125 L 8.4375 -15.140625 Z M 16.703125 -15.140625 "/></g></g></g><g fill="#02795e" fill-opacity="1"><g transform="translate(60.19201, 303.20752)"><g><path d="M 20.640625 -9.8125 L 5.78125 -9.8125 C 4.007812 -9.8125 3.125 -10.703125 3.125 -12.484375 C 3.125 -14.253906 4.007812 -15.140625 5.78125 -15.140625 L 10.546875 -15.140625 L 10.546875 -58.171875 L 7.15625 -58.171875 C 5.382812 -58.171875 4.5 -59.054688 4.5 -60.828125 C 4.5 -62.597656 5.382812 -63.484375 7.15625 -63.484375 L 19.359375 -63.484375 C 21.015625 -63.484375 21.84375 -62.597656 21.84375 -60.828125 C 21.84375 -59.054688 21.015625 -58.171875 19.359375 -58.171875 L 15.875 -58.171875 L 15.875 -15.140625 L 20.640625 -15.140625 C 22.359375 -15.140625 23.21875 -14.253906 23.21875 -12.484375 C 23.21875 -10.703125 22.359375 -9.8125 20.640625 -9.8125 Z M 20.640625 -9.8125 "/></g></g></g><g fill="#02795e" fill-opacity="1"><g transform="translate(84.230146, 303.20752)"><g><path d="M 16.703125 -9.8125 L 5.78125 -9.8125 C 4.007812 -9.8125 3.125 -10.945312 3.125 -13.21875 L 3.125 -60.09375 C 3.125 -62.351562 4.007812 -63.484375 5.78125 -63.484375 L 16.703125 -63.484375 C 21.222656 -63.484375 25.132812 -62.289062 28.4375 -59.90625 C 31.988281 -57.21875 33.765625 -53.640625 33.765625 -49.171875 C 33.765625 -45.203125 32.144531 -42.175781 28.90625 -40.09375 C 34.769531 -37.519531 37.703125 -33.175781 37.703125 -27.0625 C 37.703125 -22.113281 35.726562 -18 31.78125 -14.71875 C 27.84375 -11.445312 22.816406 -9.8125 16.703125 -9.8125 Z M 16.703125 -42.015625 C 19.515625 -42.015625 22.019531 -42.472656 24.21875 -43.390625 C 27.03125 -44.679688 28.4375 -46.609375 28.4375 -49.171875 C 28.4375 -52.171875 27.210938 -54.421875 24.765625 -55.921875 C 22.328125 -57.421875 19.640625 -58.171875 16.703125 -58.171875 L 8.4375 -58.171875 L 8.4375 -42.015625 Z M 16.703125 -15.140625 C 20.921875 -15.140625 24.5 -16.117188 27.4375 -18.078125 C 30.738281 -20.273438 32.390625 -23.269531 32.390625 -27.0625 C 32.390625 -29.207031 31.867188 -30.890625 30.828125 -32.109375 C 28.992188 -34.429688 26 -35.835938 21.84375 -36.328125 C 20 -36.578125 15.53125 -36.703125 8.4375 -36.703125 L 8.4375 -15.140625 Z M 16.703125 -15.140625 "/></g></g></g><g fill="#02795e" fill-opacity="1"><g transform="translate(122.764824, 303.20752)"><g><path d="M 13.390625 -9.8125 L 8.625 -9.8125 C 7.945312 -9.8125 7.332031 -10.070312 6.78125 -10.59375 C 6.238281 -11.113281 5.96875 -11.742188 5.96875 -12.484375 L 5.96875 -55.515625 C 5.96875 -56.671875 5.492188 -57.613281 4.546875 -58.34375 C 3.597656 -59.082031 3.125 -59.910156 3.125 -60.828125 C 3.125 -61.378906 3.304688 -61.898438 3.671875 -62.390625 C 4.285156 -63.179688 4.988281 -63.578125 5.78125 -63.578125 C 6.269531 -63.578125 6.789062 -63.394531 7.34375 -63.03125 C 9.96875 -61.132812 11.28125 -58.628906 11.28125 -55.515625 L 11.28125 -15.140625 C 15.9375 -15.140625 20.769531 -15.289062 25.78125 -15.59375 C 30.800781 -15.90625 33.507812 -16.117188 33.90625 -16.234375 C 34.300781 -16.359375 34.679688 -16.421875 35.046875 -16.421875 C 35.410156 -16.421875 35.804688 -16.28125 36.234375 -16 C 36.671875 -15.726562 36.976562 -15.347656 37.15625 -14.859375 C 37.34375 -14.367188 37.4375 -13.941406 37.4375 -13.578125 L 37.25 -12.484375 C 36.695312 -11.078125 30.582031 -10.25 18.90625 -10 Z M 13.390625 -9.8125 "/></g></g></g><g fill="#02795e" fill-opacity="1"><g transform="translate(161.02426, 303.20752)"><g><path d="M 20.640625 -9.8125 L 5.78125 -9.8125 C 4.007812 -9.8125 3.125 -10.703125 3.125 -12.484375 C 3.125 -14.253906 4.007812 -15.140625 5.78125 -15.140625 L 10.546875 -15.140625 L 10.546875 -58.171875 L 7.15625 -58.171875 C 5.382812 -58.171875 4.5 -59.054688 4.5 -60.828125 C 4.5 -62.597656 5.382812 -63.484375 7.15625 -63.484375 L 19.359375 -63.484375 C 21.015625 -63.484375 21.84375 -62.597656 21.84375 -60.828125 C 21.84375 -59.054688 21.015625 -58.171875 19.359375 -58.171875 L 15.875 -58.171875 L 15.875 -15.140625 L 20.640625 -15.140625 C 22.359375 -15.140625 23.21875 -14.253906 23.21875 -12.484375 C 23.21875 -10.703125 22.359375 -9.8125 20.640625 -9.8125 Z M 20.640625 -9.8125 "/></g></g></g><g fill="#02795e" fill-opacity="1"><g transform="translate(185.062401, 303.20752)"><g><path d="M 23.859375 -9.8125 C 17.367188 -9.8125 12.164062 -12.84375 8.25 -18.90625 C 4.832031 -24.101562 3.125 -30.125 3.125 -36.96875 C 3.125 -43.757812 4.832031 -49.785156 8.25 -55.046875 C 12.164062 -61.109375 17.367188 -64.140625 23.859375 -64.140625 C 30.273438 -64.140625 35.441406 -61.109375 39.359375 -55.046875 C 42.847656 -49.660156 44.59375 -43.632812 44.59375 -36.96875 C 44.59375 -30.300781 42.847656 -24.28125 39.359375 -18.90625 C 35.441406 -12.84375 30.273438 -9.8125 23.859375 -9.8125 Z M 23.859375 -15.140625 C 28.078125 -15.140625 31.695312 -17.28125 34.71875 -21.5625 C 37.75 -25.84375 39.265625 -30.976562 39.265625 -36.96875 C 39.265625 -42.96875 37.75 -48.109375 34.71875 -52.390625 C 31.695312 -56.671875 28.078125 -58.8125 23.859375 -58.8125 C 19.453125 -58.8125 15.734375 -56.671875 12.703125 -52.390625 C 9.679688 -48.109375 8.171875 -42.96875 8.171875 -36.96875 C 8.171875 -30.976562 9.679688 -25.84375 12.703125 -21.5625 C 15.734375 -17.28125 19.453125 -15.140625 23.859375 -15.140625 Z M 23.859375 -15.140625 "/></g></g></g><g fill="#02795e" fill-opacity="1"><g transform="translate(230.478352, 303.20752)"><g><path d="M 22.84375 -9.8125 C 21.070312 -9.8125 20.1875 -10.703125 20.1875 -12.484375 L 20.1875 -58.171875 L 5.78125 -58.171875 C 4.007812 -58.171875 3.125 -59.054688 3.125 -60.828125 C 3.125 -62.597656 4.007812 -63.484375 5.78125 -63.484375 L 39.8125 -63.484375 C 41.53125 -63.484375 42.390625 -62.597656 42.390625 -60.828125 C 42.390625 -59.054688 41.53125 -58.171875 39.8125 -58.171875 L 25.5 -58.171875 L 25.5 -12.484375 C 25.5 -10.703125 24.613281 -9.8125 22.84375 -9.8125 Z M 22.84375 -9.8125 "/></g></g></g><g fill="#02795e" fill-opacity="1"><g transform="translate(273.692303, 303.20752)"><g><path d="M 5.5 -9.8125 C 4.832031 -9.8125 4.269531 -10.070312 3.8125 -10.59375 C 3.351562 -11.113281 3.125 -11.742188 3.125 -12.484375 L 3.125 -60.828125 C 3.125 -61.566406 3.351562 -62.191406 3.8125 -62.703125 C 4.269531 -63.222656 4.832031 -63.484375 5.5 -63.484375 L 31.84375 -63.484375 C 33.550781 -63.484375 34.40625 -62.597656 34.40625 -60.828125 C 34.40625 -59.054688 33.550781 -58.171875 31.84375 -58.171875 L 8.171875 -58.171875 L 8.171875 -39.546875 L 27.0625 -39.546875 C 28.78125 -39.546875 29.640625 -38.660156 29.640625 -36.890625 C 29.640625 -35.109375 28.78125 -34.21875 27.0625 -34.21875 L 8.171875 -34.21875 L 8.171875 -15.140625 C 21.804688 -15.566406 29.359375 -15.898438 30.828125 -16.140625 L 31.84375 -16.328125 C 32.269531 -16.328125 32.726562 -16.207031 33.21875 -15.96875 C 34.070312 -15.476562 34.5 -14.773438 34.5 -13.859375 C 34.5 -12.628906 33.835938 -11.769531 32.515625 -11.28125 C 31.203125 -10.789062 27.273438 -10.394531 20.734375 -10.09375 C 16.085938 -9.90625 11.007812 -9.8125 5.5 -9.8125 Z M 5.5 -9.8125 "/></g></g></g><g fill="#02795e" fill-opacity="1"><g transform="translate(309.015724, 303.20752)"><g><path d="M 23.859375 -9.8125 C 17.429688 -9.8125 12.257812 -12.84375 8.34375 -18.90625 C 4.863281 -24.28125 3.125 -30.300781 3.125 -36.96875 C 3.125 -43.632812 4.863281 -49.660156 8.34375 -55.046875 C 12.257812 -61.109375 17.429688 -64.140625 23.859375 -64.140625 C 27.828125 -64.140625 31.191406 -62.609375 33.953125 -59.546875 L 33.953125 -60.921875 C 33.953125 -62.578125 34.835938 -63.40625 36.609375 -63.40625 C 37.285156 -63.40625 37.894531 -63.160156 38.4375 -62.671875 C 38.988281 -62.179688 39.265625 -61.503906 39.265625 -60.640625 L 39.265625 -48.171875 C 39.265625 -46.453125 38.472656 -45.59375 36.890625 -45.59375 C 35.296875 -45.59375 34.316406 -46.359375 33.953125 -47.890625 C 33.578125 -50.585938 32.546875 -53.082031 30.859375 -55.375 C 29.179688 -57.664062 26.847656 -58.8125 23.859375 -58.8125 C 19.640625 -58.8125 16.015625 -56.671875 12.984375 -52.390625 C 9.953125 -48.109375 8.4375 -42.96875 8.4375 -36.96875 C 8.4375 -30.976562 9.953125 -25.84375 12.984375 -21.5625 C 16.015625 -17.28125 19.640625 -15.140625 23.859375 -15.140625 C 25.992188 -15.140625 27.8125 -15.566406 29.3125 -16.421875 C 30.8125 -17.273438 32.035156 -18.296875 32.984375 -19.484375 C 33.929688 -20.679688 34.617188 -21.96875 35.046875 -23.34375 C 35.472656 -24.726562 35.734375 -25.878906 35.828125 -26.796875 C 35.921875 -27.710938 36.273438 -28.351562 36.890625 -28.71875 C 37.429688 -29.019531 37.976562 -29.171875 38.53125 -29.171875 L 38.8125 -29.171875 C 40.40625 -29.054688 41.203125 -28.234375 41.203125 -26.703125 L 41.203125 -26.328125 C 40.828125 -21.742188 38.988281 -17.84375 35.6875 -14.625 C 32.382812 -11.414062 28.441406 -9.8125 23.859375 -9.8125 Z M 23.859375 -9.8125 "/></g></g></g><g fill="#02795e" fill-opacity="1"><g transform="translate(73.001312, 327.590764)"><g><path d="M 4.964844 0.0859375 C 8.273438 0.0859375 13.292969 -1.261719 13.292969 -5.355469 C 13.292969 -7.488281 12.03125 -9.507812 9.929688 -10.152344 C 11.132812 -11.132812 11.808594 -12.734375 11.808594 -14.277344 C 11.808594 -17.867188 8.191406 -19.183594 5.132812 -19.183594 C 2.1875 -19.183594 1.933594 -17.558594 1.933594 -15.03125 C 1.933594 -12.703125 2.046875 -3.085938 2.523438 -1.347656 C 2.917969 0.0859375 3.644531 0.0859375 4.964844 0.0859375 Z M 9.226562 -13.882812 C 9.226562 -11.640625 6.925781 -9.898438 4.796875 -9.898438 L 4.597656 -9.898438 C 4.515625 -11.164062 4.460938 -12.453125 4.460938 -13.714844 C 4.460938 -14.472656 4.460938 -15.230469 4.515625 -15.957031 C 4.570312 -16.6875 4.878906 -16.773438 5.554688 -16.773438 C 7.234375 -16.773438 9.226562 -15.789062 9.226562 -13.882812 Z M 4.851562 -7.628906 C 5.863281 -8.050781 6.984375 -8.191406 8.078125 -8.191406 C 9.761719 -8.191406 10.515625 -7.742188 10.515625 -5.945312 C 10.515625 -3.421875 8.300781 -2.609375 6.140625 -2.609375 C 5.863281 -2.609375 5.355469 -2.582031 5.132812 -2.777344 C 4.878906 -3 4.851562 -6.675781 4.851562 -7.265625 Z M 4.851562 -7.628906 "/></g></g></g><g fill="#02795e" fill-opacity="1"><g transform="translate(86.939407, 327.590764)"><g><path d="M 3.785156 -2.550781 C 2.75 -2.523438 1.570312 -2.636719 1.570312 -1.234375 C 1.570312 -0.0273438 3.167969 0.0273438 4.039062 0.0273438 C 5.132812 0.0273438 8.695312 0.253906 8.695312 -1.375 C 8.695312 -2.300781 7.796875 -2.609375 7.011719 -2.609375 C 6.898438 -2.609375 6.730469 -2.582031 6.648438 -2.609375 C 6.308594 -2.636719 6.394531 -2.859375 6.367188 -3.140625 C 6.113281 -7.347656 6.28125 -11.609375 6.171875 -15.847656 C 7.234375 -15.847656 8.976562 -15.566406 8.976562 -17.136719 C 8.976562 -18.285156 7.910156 -18.371094 7.011719 -18.371094 C 6.675781 -18.371094 6.339844 -18.371094 6 -18.371094 L 3.953125 -18.425781 C 3.617188 -18.425781 3.28125 -18.425781 2.945312 -18.425781 C 1.765625 -18.425781 1.207031 -18.371094 1.207031 -17.023438 C 1.207031 -16.015625 1.625 -15.789062 2.582031 -15.789062 C 3.335938 -15.789062 3.703125 -16.015625 3.703125 -15.003906 C 3.703125 -10.855469 3.757812 -6.703125 3.785156 -2.550781 Z M 3.785156 -2.550781 "/></g></g></g><g fill="#02795e" fill-opacity="1"><g transform="translate(96.558593, 327.590764)"><g><path d="M 4.964844 0.0859375 C 8.273438 0.0859375 13.292969 -1.261719 13.292969 -5.355469 C 13.292969 -7.488281 12.03125 -9.507812 9.929688 -10.152344 C 11.132812 -11.132812 11.808594 -12.734375 11.808594 -14.277344 C 11.808594 -17.867188 8.191406 -19.183594 5.132812 -19.183594 C 2.1875 -19.183594 1.933594 -17.558594 1.933594 -15.03125 C 1.933594 -12.703125 2.046875 -3.085938 2.523438 -1.347656 C 2.917969 0.0859375 3.644531 0.0859375 4.964844 0.0859375 Z M 9.226562 -13.882812 C 9.226562 -11.640625 6.925781 -9.898438 4.796875 -9.898438 L 4.597656 -9.898438 C 4.515625 -11.164062 4.460938 -12.453125 4.460938 -13.714844 C 4.460938 -14.472656 4.460938 -15.230469 4.515625 -15.957031 C 4.570312 -16.6875 4.878906 -16.773438 5.554688 -16.773438 C 7.234375 -16.773438 9.226562 -15.789062 9.226562 -13.882812 Z M 4.851562 -7.628906 C 5.863281 -8.050781 6.984375 -8.191406 8.078125 -8.191406 C 9.761719 -8.191406 10.515625 -7.742188 10.515625 -5.945312 C 10.515625 -3.421875 8.300781 -2.609375 6.140625 -2.609375 C 5.863281 -2.609375 5.355469 -2.582031 5.132812 -2.777344 C 4.878906 -3 4.851562 -6.675781 4.851562 -7.265625 Z M 4.851562 -7.628906 "/></g></g></g><g fill="#02795e" fill-opacity="1"><g transform="translate(110.496689, 327.590764)"><g><path d="M 4.9375 -2.859375 C 4.90625 -3.058594 4.90625 -3.253906 4.90625 -3.449219 L 4.402344 -16.714844 C 4.375 -17.78125 4.488281 -18.875 3.058594 -18.875 C 2.019531 -18.875 1.824219 -18.34375 1.824219 -17.417969 C 1.824219 -16.492188 1.90625 -15.539062 1.964844 -14.613281 C 2.1875 -10.628906 2.101562 -6.617188 2.328125 -2.609375 C 2.382812 -1.488281 2.550781 -0.308594 3.953125 -0.308594 C 5.777344 -0.308594 7.574219 -0.476562 9.394531 -0.476562 C 10.460938 -0.476562 11.386719 -0.140625 11.386719 -1.65625 C 11.386719 -2.804688 10.714844 -3 9.703125 -3 C 8.105469 -3 6.535156 -2.945312 4.9375 -2.859375 Z M 4.9375 -2.859375 "/></g></g></g><g fill="#02795e" fill-opacity="1"><g transform="translate(121.321801, 327.590764)"><g><path d="M 3.785156 -2.550781 C 2.75 -2.523438 1.570312 -2.636719 1.570312 -1.234375 C 1.570312 -0.0273438 3.167969 0.0273438 4.039062 0.0273438 C 5.132812 0.0273438 8.695312 0.253906 8.695312 -1.375 C 8.695312 -2.300781 7.796875 -2.609375 7.011719 -2.609375 C 6.898438 -2.609375 6.730469 -2.582031 6.648438 -2.609375 C 6.308594 -2.636719 6.394531 -2.859375 6.367188 -3.140625 C 6.113281 -7.347656 6.28125 -11.609375 6.171875 -15.847656 C 7.234375 -15.847656 8.976562 -15.566406 8.976562 -17.136719 C 8.976562 -18.285156 7.910156 -18.371094 7.011719 -18.371094 C 6.675781 -18.371094 6.339844 -18.371094 6 -18.371094 L 3.953125 -18.425781 C 3.617188 -18.425781 3.28125 -18.425781 2.945312 -18.425781 C 1.765625 -18.425781 1.207031 -18.371094 1.207031 -17.023438 C 1.207031 -16.015625 1.625 -15.789062 2.582031 -15.789062 C 3.335938 -15.789062 3.703125 -16.015625 3.703125 -15.003906 C 3.703125 -10.855469 3.757812 -6.703125 3.785156 -2.550781 Z M 3.785156 -2.550781 "/></g></g></g><g fill="#02795e" fill-opacity="1"><g transform="translate(130.940986, 327.590764)"><g><path d="M 8.328125 -19.269531 C 3.503906 -19.269531 1.570312 -13.996094 1.570312 -9.929688 C 1.570312 -5.132812 3.308594 -0.0273438 8.976562 -0.0273438 C 13.769531 -0.0273438 15.339844 -5.777344 15.339844 -9.648438 C 15.339844 -13.882812 13.320312 -19.269531 8.328125 -19.269531 Z M 8.441406 -2.582031 C 4.796875 -2.582031 4.234375 -6.757812 4.234375 -9.5625 C 4.234375 -12.394531 5.046875 -16.742188 8.667969 -16.742188 C 12.144531 -16.742188 12.875 -12.367188 12.875 -9.675781 C 12.875 -6.984375 11.835938 -2.582031 8.441406 -2.582031 Z M 8.441406 -2.582031 "/></g></g></g><g fill="#02795e" fill-opacity="1"><g transform="translate(147.23485, 327.590764)"><g><path d="M 9.480469 -16.351562 C 10.292969 -16.351562 10.964844 -16.492188 10.964844 -17.472656 C 10.964844 -18.203125 10.742188 -18.875 9.871094 -18.875 C 9.285156 -18.875 8.695312 -18.875 8.078125 -18.875 L 4.542969 -18.929688 C 3.925781 -18.929688 3.335938 -18.929688 2.75 -18.929688 C 1.625 -18.929688 0.394531 -18.734375 0.394531 -17.332031 C 0.394531 -16.601562 0.699219 -16.265625 1.429688 -16.265625 C 1.625 -16.265625 1.851562 -16.265625 2.046875 -16.265625 L 3.28125 -16.351562 C 3.476562 -16.351562 3.703125 -16.351562 3.898438 -16.351562 C 4.375 -16.351562 4.488281 -16.265625 4.570312 -15.816406 C 4.796875 -14.695312 4.710938 -13.460938 4.769531 -12.3125 C 4.878906 -9.03125 4.769531 -5.75 5.078125 -2.46875 C 5.160156 -1.710938 5.441406 -0.925781 6.339844 -0.925781 C 7.515625 -0.925781 7.742188 -1.542969 7.742188 -2.609375 C 7.742188 -7.179688 7.265625 -11.78125 7.066406 -16.351562 Z M 9.480469 -16.351562 "/></g></g></g><g fill="#02795e" fill-opacity="1"><g transform="translate(158.284321, 327.590764)"><g><path d="M 4.964844 -10.320312 C 4.738281 -11.890625 4.628906 -13.460938 4.628906 -15.0625 C 4.628906 -15.507812 4.710938 -15.734375 5.214844 -15.734375 C 6.984375 -15.734375 8.75 -15.566406 10.515625 -15.566406 C 11.21875 -15.566406 11.695312 -16.210938 11.695312 -16.882812 C 11.695312 -18.652344 8.246094 -18.425781 7.066406 -18.425781 C 5.863281 -18.425781 1.878906 -18.453125 1.878906 -16.632812 C 1.878906 -11.582031 1.878906 -6.339844 2.691406 -1.347656 C 2.832031 -0.503906 3.085938 -0.449219 3.871094 -0.335938 C 6.140625 -0.0546875 8.46875 0 10.769531 0 C 11.582031 0 12.03125 -0.644531 12.03125 -1.402344 C 12.03125 -2.609375 10.882812 -2.777344 9.929688 -2.777344 C 8.359375 -2.777344 6.816406 -2.890625 5.246094 -2.972656 C 5.160156 -4.261719 5.046875 -5.554688 5.046875 -6.84375 L 5.046875 -8.132812 C 6.226562 -8.132812 7.402344 -7.992188 8.582031 -7.992188 C 9.675781 -7.992188 10.378906 -8.246094 10.378906 -9.453125 C 10.378906 -10.125 9.675781 -10.433594 9.085938 -10.433594 C 8.609375 -10.433594 8.132812 -10.40625 7.628906 -10.40625 L 6.675781 -10.347656 C 6.199219 -10.347656 5.695312 -10.320312 5.214844 -10.320312 Z M 4.964844 -10.320312 "/></g></g></g><g fill="#02795e" fill-opacity="1"><g transform="translate(170.287304, 327.590764)"><g><path d="M 1.542969 -8.078125 C 1.542969 -3.675781 3.085938 -0.0546875 8.050781 -0.0546875 C 10.769531 -0.0546875 12.875 -1.542969 12.875 -4.429688 C 12.875 -5.160156 12.199219 -5.636719 11.527344 -5.636719 C 9.535156 -5.636719 10.433594 -2.609375 7.488281 -2.609375 C 4.207031 -2.609375 4.09375 -6.058594 4.09375 -8.496094 C 4.09375 -11.050781 4.769531 -16.097656 8.191406 -16.097656 C 10.378906 -16.097656 10.265625 -13.910156 11.527344 -13.910156 C 12.171875 -13.910156 12.816406 -14.472656 12.816406 -15.144531 C 12.816406 -17.304688 10.207031 -18.652344 8.328125 -18.652344 C 2.945312 -18.652344 1.542969 -12.367188 1.542969 -8.078125 Z M 1.542969 -8.078125 "/></g></g></g><g fill="#02795e" fill-opacity="1"><g transform="translate(183.860805, 327.590764)"><g><path d="M 15.257812 -1.402344 C 15.257812 -3.167969 9.957031 -16.6875 8.777344 -18.398438 C 8.441406 -18.902344 8.191406 -19.183594 7.542969 -19.183594 C 6.984375 -19.183594 6.757812 -19.15625 6.449219 -18.652344 C 5.832031 -17.667969 1.007812 -2.410156 1.007812 -1.429688 C 1.007812 -0.53125 1.121094 -0.167969 2.101562 -0.167969 C 2.496094 -0.167969 2.777344 -0.167969 3.113281 -0.394531 C 3.5625 -0.671875 4.179688 -4.152344 4.375 -4.878906 C 4.515625 -5.414062 4.570312 -5.722656 5.214844 -5.722656 C 5.695312 -5.722656 6.140625 -5.722656 6.617188 -5.722656 L 9.394531 -5.636719 C 9.871094 -5.636719 10.347656 -5.636719 10.796875 -5.636719 C 11.441406 -5.636719 11.609375 -5.386719 11.835938 -4.824219 C 12.257812 -3.84375 12.480469 -0.589844 13.910156 -0.589844 C 14.472656 -0.589844 15.257812 -0.644531 15.257812 -1.402344 Z M 5.441406 -8.191406 C 6.140625 -10.6875 6.871094 -13.183594 7.628906 -15.648438 L 10.292969 -8.21875 Z M 5.441406 -8.191406 "/></g></g></g><g fill="#02795e" fill-opacity="1"><g transform="translate(199.341363, 327.590764)"><g/></g></g><g fill="#02795e" fill-opacity="1"><g transform="translate(209.857981, 327.590764)"><g><path d="M 5.132812 -6.507812 C 9.113281 -6.449219 12.144531 -7.460938 12.144531 -12.03125 C 12.144531 -15.339844 10.179688 -18.820312 6.507812 -18.820312 C 3.167969 -18.820312 1.710938 -16.492188 1.710938 -13.378906 C 1.710938 -11.023438 2.410156 -2.636719 3.167969 -0.699219 C 3.367188 -0.195312 3.644531 0.308594 4.261719 0.308594 C 4.769531 0.308594 5.523438 0.113281 5.523438 -0.53125 C 5.523438 -2.382812 5.132812 -4.234375 5.132812 -6.085938 Z M 6.480469 -16.210938 C 8.835938 -16.210938 9.648438 -14.023438 9.648438 -12.003906 C 9.648438 -9.871094 8.019531 -8.976562 6.085938 -8.976562 C 4.992188 -8.976562 4.878906 -9.789062 4.796875 -10.65625 C 4.65625 -11.949219 4.597656 -13.265625 4.597656 -14.554688 C 4.597656 -15.816406 5.300781 -16.210938 6.480469 -16.210938 Z M 6.480469 -16.210938 "/></g></g></g><g fill="#02795e" fill-opacity="1"><g transform="translate(222.029235, 327.590764)"><g><path d="M 8.414062 -20.023438 C 9.339844 -20.023438 11.976562 -23.054688 11.976562 -23.558594 C 11.976562 -24.203125 11.246094 -24.792969 10.628906 -24.792969 C 10.292969 -24.792969 10.011719 -24.679688 9.761719 -24.457031 C 9.171875 -23.921875 7.234375 -21.933594 7.234375 -21.175781 C 7.234375 -20.558594 7.796875 -20.023438 8.414062 -20.023438 Z M 8.078125 0.140625 C 12.058594 0.140625 13.601562 -4.039062 14.078125 -7.347656 C 14.445312 -10.011719 14.78125 -12.675781 14.78125 -15.371094 C 14.78125 -16.238281 14.722656 -18.539062 13.460938 -18.539062 C 12.480469 -18.539062 12.199219 -17.558594 12.199219 -16.742188 C 12.199219 -13.660156 12.089844 -10.546875 11.695312 -7.488281 C 11.414062 -5.328125 10.628906 -2.382812 7.9375 -2.382812 C 7.152344 -2.382812 6.421875 -2.46875 5.804688 -3 C 4.515625 -4.09375 4.488281 -10.238281 4.488281 -12.003906 C 4.488281 -12.425781 4.488281 -12.816406 4.488281 -13.238281 L 4.542969 -15.707031 C 4.542969 -16.125 4.542969 -16.519531 4.542969 -16.941406 C 4.542969 -17.808594 4.347656 -18.679688 3.28125 -18.679688 C 2.214844 -18.679688 1.878906 -17.753906 1.878906 -16.855469 C 1.878906 -16.433594 1.878906 -16.015625 1.878906 -15.59375 L 1.851562 -13.070312 C 1.851562 -12.648438 1.851562 -12.226562 1.851562 -11.808594 C 1.851562 -8.441406 1.851562 -1.316406 5.890625 -0.140625 C 6.589844 0.0546875 7.347656 0.140625 8.078125 0.140625 Z M 8.078125 0.140625 "/></g></g></g><g fill="#02795e" fill-opacity="1"><g transform="translate(237.846334, 327.590764)"><g><path d="M 4.964844 0.0859375 C 8.273438 0.0859375 13.292969 -1.261719 13.292969 -5.355469 C 13.292969 -7.488281 12.03125 -9.507812 9.929688 -10.152344 C 11.132812 -11.132812 11.808594 -12.734375 11.808594 -14.277344 C 11.808594 -17.867188 8.191406 -19.183594 5.132812 -19.183594 C 2.1875 -19.183594 1.933594 -17.558594 1.933594 -15.03125 C 1.933594 -12.703125 2.046875 -3.085938 2.523438 -1.347656 C 2.917969 0.0859375 3.644531 0.0859375 4.964844 0.0859375 Z M 9.226562 -13.882812 C 9.226562 -11.640625 6.925781 -9.898438 4.796875 -9.898438 L 4.597656 -9.898438 C 4.515625 -11.164062 4.460938 -12.453125 4.460938 -13.714844 C 4.460938 -14.472656 4.460938 -15.230469 4.515625 -15.957031 C 4.570312 -16.6875 4.878906 -16.773438 5.554688 -16.773438 C 7.234375 -16.773438 9.226562 -15.789062 9.226562 -13.882812 Z M 4.851562 -7.628906 C 5.863281 -8.050781 6.984375 -8.191406 8.078125 -8.191406 C 9.761719 -8.191406 10.515625 -7.742188 10.515625 -5.945312 C 10.515625 -3.421875 8.300781 -2.609375 6.140625 -2.609375 C 5.863281 -2.609375 5.355469 -2.582031 5.132812 -2.777344 C 4.878906 -3 4.851562 -6.675781 4.851562 -7.265625 Z M 4.851562 -7.628906 "/></g></g></g><g fill="#02795e" fill-opacity="1"><g transform="translate(251.784426, 327.590764)"><g><path d="M 4.9375 -2.859375 C 4.90625 -3.058594 4.90625 -3.253906 4.90625 -3.449219 L 4.402344 -16.714844 C 4.375 -17.78125 4.488281 -18.875 3.058594 -18.875 C 2.019531 -18.875 1.824219 -18.34375 1.824219 -17.417969 C 1.824219 -16.492188 1.90625 -15.539062 1.964844 -14.613281 C 2.1875 -10.628906 2.101562 -6.617188 2.328125 -2.609375 C 2.382812 -1.488281 2.550781 -0.308594 3.953125 -0.308594 C 5.777344 -0.308594 7.574219 -0.476562 9.394531 -0.476562 C 10.460938 -0.476562 11.386719 -0.140625 11.386719 -1.65625 C 11.386719 -2.804688 10.714844 -3 9.703125 -3 C 8.105469 -3 6.535156 -2.945312 4.9375 -2.859375 Z M 4.9375 -2.859375 "/></g></g></g><g fill="#02795e" fill-opacity="1"><g transform="translate(262.609533, 327.590764)"><g><path d="M 3.785156 -2.550781 C 2.75 -2.523438 1.570312 -2.636719 1.570312 -1.234375 C 1.570312 -0.0273438 3.167969 0.0273438 4.039062 0.0273438 C 5.132812 0.0273438 8.695312 0.253906 8.695312 -1.375 C 8.695312 -2.300781 7.796875 -2.609375 7.011719 -2.609375 C 6.898438 -2.609375 6.730469 -2.582031 6.648438 -2.609375 C 6.308594 -2.636719 6.394531 -2.859375 6.367188 -3.140625 C 6.113281 -7.347656 6.28125 -11.609375 6.171875 -15.847656 C 7.234375 -15.847656 8.976562 -15.566406 8.976562 -17.136719 C 8.976562 -18.285156 7.910156 -18.371094 7.011719 -18.371094 C 6.675781 -18.371094 6.339844 -18.371094 6 -18.371094 L 3.953125 -18.425781 C 3.617188 -18.425781 3.28125 -18.425781 2.945312 -18.425781 C 1.765625 -18.425781 1.207031 -18.371094 1.207031 -17.023438 C 1.207031 -16.015625 1.625 -15.789062 2.582031 -15.789062 C 3.335938 -15.789062 3.703125 -16.015625 3.703125 -15.003906 C 3.703125 -10.855469 3.757812 -6.703125 3.785156 -2.550781 Z M 3.785156 -2.550781 "/></g></g></g><g fill="#02795e" fill-opacity="1"><g transform="translate(272.228715, 327.590764)"><g><path d="M 1.542969 -8.078125 C 1.542969 -3.675781 3.085938 -0.0546875 8.050781 -0.0546875 C 10.769531 -0.0546875 12.875 -1.542969 12.875 -4.429688 C 12.875 -5.160156 12.199219 -5.636719 11.527344 -5.636719 C 9.535156 -5.636719 10.433594 -2.609375 7.488281 -2.609375 C 4.207031 -2.609375 4.09375 -6.058594 4.09375 -8.496094 C 4.09375 -11.050781 4.769531 -16.097656 8.191406 -16.097656 C 10.378906 -16.097656 10.265625 -13.910156 11.527344 -13.910156 C 12.171875 -13.910156 12.816406 -14.472656 12.816406 -15.144531 C 12.816406 -17.304688 10.207031 -18.652344 8.328125 -18.652344 C 2.945312 -18.652344 1.542969 -12.367188 1.542969 -8.078125 Z M 1.542969 -8.078125 "/></g></g></g><g fill="#02795e" fill-opacity="1"><g transform="translate(285.802216, 327.590764)"><g><path d="M 15.257812 -1.402344 C 15.257812 -3.167969 9.957031 -16.6875 8.777344 -18.398438 C 8.441406 -18.902344 8.191406 -19.183594 7.542969 -19.183594 C 6.984375 -19.183594 6.757812 -19.15625 6.449219 -18.652344 C 5.832031 -17.667969 1.007812 -2.410156 1.007812 -1.429688 C 1.007812 -0.53125 1.121094 -0.167969 2.101562 -0.167969 C 2.496094 -0.167969 2.777344 -0.167969 3.113281 -0.394531 C 3.5625 -0.671875 4.179688 -4.152344 4.375 -4.878906 C 4.515625 -5.414062 4.570312 -5.722656 5.214844 -5.722656 C 5.695312 -5.722656 6.140625 -5.722656 6.617188 -5.722656 L 9.394531 -5.636719 C 9.871094 -5.636719 10.347656 -5.636719 10.796875 -5.636719 C 11.441406 -5.636719 11.609375 -5.386719 11.835938 -4.824219 C 12.257812 -3.84375 12.480469 -0.589844 13.910156 -0.589844 C 14.472656 -0.589844 15.257812 -0.644531 15.257812 -1.402344 Z M 5.441406 -8.191406 C 6.140625 -10.6875 6.871094 -13.183594 7.628906 -15.648438 L 10.292969 -8.21875 Z M 5.441406 -8.191406 "/></g></g></g></svg>